<?xml version="1.0" encoding="UTF-8"?><svg id="Layer_1" xmlns="http://www.w3.org/2000/svg" viewBox="0 0 50 50"><defs><style>.cls-1{fill:#0a225d;}</style></defs><path class="cls-1" d="M28.37,2.76c.08,.04,.17,.04,.25,.06,.83,.18,1.55,.57,2.2,1.11,.87,.71,1.56,1.59,2.15,2.54,.71,1.15,1.24,2.38,1.69,3.66,.65,1.86,1.08,3.77,1.36,5.72,.12,.79,.22,1.58,.28,2.38,.07,.78,.12,1.56,.15,2.35,.03,.82,.06,1.64,.07,2.46,0,.08,0,.16-.01,.24-.04,.24-.15,.34-.39,.36-.02,0-.04,0-.07,0-.54,0-1.08,0-1.61,0-.34,0-.45-.12-.46-.46-.01-.75-.01-1.5-.05-2.25-.04-.93-.1-1.86-.2-2.78-.13-1.3-.31-2.6-.58-3.88-.32-1.51-.74-2.98-1.36-4.39-.42-.97-.93-1.9-1.62-2.71-.45-.54-.96-1.01-1.62-1.31-.26-.12-.54-.18-.83-.17-.3,.01-.5,.21-.5,.52,0,.18,.07,.34,.14,.5,.11,.25,.25,.48,.38,.71,.33,.57,.65,1.15,.85,1.79,.18,.57,.28,1.15,.24,1.74-.05,.74-.33,1.4-.79,1.97-.29,.36-.63,.65-1.05,.84-.9,.41-1.75,.27-2.54-.29-.49-.35-.88-.81-1.22-1.3-.3-.42-.57-.86-.82-1.31-.22-.4-.47-.77-.72-1.14-.15-.22-.32-.42-.51-.6-.06-.05-.12-.11-.18-.15-.23-.16-.47-.17-.71-.02-.34,.21-.6,.5-.85,.81-.47,.59-.82,1.25-1.13,1.94-.75,1.68-1.21,3.44-1.52,5.25-.23,1.35-.39,2.7-.56,4.06-.09,.74-.17,1.49-.27,2.23-.04,.31-.14,.4-.46,.4-.57,0-1.15,0-1.72,0-.32,0-.44-.13-.41-.45,.05-.59,.11-1.17,.18-1.76,.11-.95,.23-1.89,.38-2.83,.26-1.68,.58-3.35,1.05-4.99,.38-1.34,.86-2.64,1.52-3.87,.54-1.02,1.17-1.98,2.01-2.78,.49-.47,1.04-.86,1.71-1.07,.5-.15,.97-.12,1.44,.1,.53,.25,.94,.63,1.32,1.06,.63,.72,1.13,1.54,1.63,2.34,.29,.46,.58,.93,.9,1.37,.09,.12,.18,.23,.3,.32,.11,.09,.2,.09,.3-.02,.08-.09,.12-.2,.14-.31,.02-.2,0-.39-.06-.58-.13-.4-.31-.78-.5-1.16-.28-.57-.58-1.12-.81-1.72-.17-.45-.3-.91-.3-1.4,.01-1.52,1.09-2.81,2.59-3.07,.04,0,.08-.02,.13-.03h1.05Z"/><path class="cls-1" d="M22.83,47.24s-.1-.03-.15-.03c-.31-.02-.62-.03-.94-.05-.66-.04-1.32-.09-1.98-.16-.85-.09-1.7-.21-2.55-.36-1.79-.31-3.54-.75-5.21-1.49-.77-.35-1.51-.76-2.16-1.31-.58-.49-1.06-1.05-1.32-1.78-.47-1.3-.08-2.77,.97-3.67,.68-.58,1.48-.92,2.33-1.13,1.02-.26,2.07-.32,3.12-.27,1.45,.08,2.87,.32,4.28,.68,2.1,.54,4.14,1.26,6.12,2.18,.23,.11,.41,.26,.54,.49,.32,.57,0,1.37-.61,1.62-.36,.14-.72,.12-1.07,0-.36-.13-.72-.29-1.07-.44-1.54-.67-3.12-1.24-4.77-1.61-.77-.17-1.55-.3-2.34-.39-.7-.08-1.41-.1-2.11-.07-.73,.03-1.47,.1-2.16,.38-.22,.09-.42,.2-.59,.37-.32,.31-.39,.69-.22,1.1,.11,.27,.31,.47,.52,.66,.47,.4,1,.7,1.55,.96,1.33,.62,2.74,1,4.18,1.3,1.06,.22,2.13,.37,3.21,.48,.49,.05,.98,.08,1.48,.11,.9,.04,1.8,.1,2.7,.07,.85-.03,1.7-.05,2.55-.11,.91-.07,1.81-.15,2.71-.28,2.29-.33,4.53-.87,6.64-1.85,.54-.25,1.07-.53,1.55-.88,.37-.26,.68-.59,.97-.94,.33-.4,.28-.99-.1-1.35-.03-.02-.06-.05-.08-.07-.19-.16-.21-.27-.06-.47,.36-.48,.68-.98,.99-1.49,.11-.19,.21-.23,.37-.15,.63,.33,1.17,.76,1.47,1.43,.23,.52,.27,1.07,.21,1.63-.12,1.14-.72,2.01-1.54,2.75-.99,.88-2.15,1.48-3.37,1.99-1.73,.72-3.54,1.19-5.38,1.53-.97,.17-1.94,.31-2.91,.4-.84,.08-1.68,.15-2.52,.18-.25,0-.51,.03-.76,.04-.06,0-.12,0-.17,.03h-2.31Z"/><path class="cls-1" d="M10.18,34.8c-.72,0-1.44,0-2.16,0-.05,0-.1,0-.15,0-.34,0-.41-.07-.41-.41,0-.5,0-1,0-1.51,0-.33,.1-.43,.43-.44,.2,0,.39,0,.59,0,.21,0,.29-.09,.23-.29-.09-.34-.22-.66-.35-.99-.03-.07-.1-.1-.17-.13-.09-.03-.19-.03-.28-.03-1.07,0-2.14,0-3.21,0-.32,0-.35,.02-.47,.31-.09,.23-.17,.46-.26,.7-.02,.05-.03,.11-.04,.17-.02,.16,.04,.23,.2,.24,.21,.01,.42,0,.63,0,.08,0,.16,0,.24,.01,.16,.03,.22,.1,.23,.26,0,.14,0,.28,0,.41,0,.44,0,.89,0,1.33,0,.26-.06,.32-.32,.34-.07,0-.13,0-.2,0-1.29,0-2.59,0-3.88,0-.02,0-.04,0-.07,0-.39,0-.49-.1-.49-.49,0-.49,0-.97,0-1.46,0-.33,.08-.41,.41-.41,.11,0,.22,0,.33,0,.18,.01,.29-.07,.35-.23,.12-.31,.24-.61,.35-.92,.68-1.77,1.36-3.54,2.04-5.32,.22-.56,.44-1.12,.66-1.69,.01-.03,.03-.07,.04-.1,.03-.13-.02-.2-.15-.2-.17,0-.35,0-.52,0-.05,0-.1,0-.15,0-.36,0-.47-.11-.47-.47,0-.48,0-.96,0-1.44,0-.32,.09-.42,.41-.44,.18-.01,.36,0,.55,0,.63,0,1.25,0,1.88,0,.35,0,.7,.01,1.04,.07,.49,.08,.81,.37,.98,.83,.42,1.11,.83,2.22,1.24,3.33,.67,1.79,1.33,3.57,2,5.36,.11,.3,.23,.6,.33,.9,.08,.23,.23,.34,.48,.33,.13,0,.26,0,.39,0,.3,.02,.44,.16,.44,.45,0,.51,0,1.02,0,1.53,0,.28-.09,.37-.39,.38-.79,0-1.57,0-2.36,0Zm-3.8-5.81c.31,0,.63,0,.94,0,.22,0,.27-.08,.2-.29-.33-.9-.67-1.8-1.01-2.69-.02-.05-.04-.11-.08-.16-.06-.08-.12-.08-.18,0-.05,.06-.07,.13-.09,.2-.3,.89-.6,1.78-.89,2.67-.07,.22-.03,.28,.2,.28,.31,0,.61,0,.92,0Z"/><path class="cls-1" d="M24.27,24.27c0,.71,0,1.41,0,2.12,0,.02,0,.04,0,.07,.01,.08-.04,.19,.06,.24,.09,.04,.14-.06,.19-.11,.44-.38,.92-.68,1.49-.78,1.38-.24,2.62,.06,3.62,1.08,.45,.46,.74,1.03,.92,1.64,.23,.76,.26,1.54,.2,2.33-.04,.49-.11,.98-.28,1.45-.25,.68-.64,1.27-1.19,1.75-.48,.42-1.05,.65-1.67,.75-.73,.12-1.46,.09-2.18-.13-.4-.12-.77-.31-1.06-.62-.01-.02-.03-.03-.05-.05-.05-.04-.1-.12-.19-.08-.07,.03-.05,.12-.05,.18,0,.14,0,.28-.01,.41-.02,.19-.08,.24-.26,.27-.07,.01-.14,.01-.22,.01-.89,0-1.79,0-2.68,0-.45,0-.53-.07-.53-.51,0-.52-.03-1.03,.02-1.55,.02-.22,.08-.28,.3-.29,.19-.01,.38,0,.57,0,.19,0,.22-.04,.23-.23,0-.07,0-.13,0-.2,0-2.53,0-5.06,0-7.59,0-.42,0-.43-.42-.43-.41,0-.44-.03-.44-.45,0-.54,0-1.08,0-1.61,0-.21,.05-.27,.26-.29,.06,0,.13,0,.2,0,.89,0,1.77,0,2.66,0,.42,0,.5,.08,.5,.51,0,.71,0,1.43,0,2.14Zm3.58,6.07c0-.2-.01-.41-.05-.63-.16-.8-.58-1.42-1.47-1.52-.67-.08-1.38,.18-1.69,.88-.37,.83-.36,1.67,.04,2.48,.21,.43,.58,.7,1.05,.81,.17,.04,.35,.04,.52,.02,.47-.04,.87-.23,1.17-.6,.34-.42,.46-.9,.44-1.45Z"/><path class="cls-1" d="M39.2,25.8c.67,0,1.34,0,2.01,0,.07,0,.13,0,.2,0,.15,.02,.22,.09,.24,.24,0,.05,0,.1,0,.15,0,.52,0,1.05,0,1.57,0,.04,0,.07,0,.11-.02,.18-.08,.26-.27,.28-.15,.01-.31,0-.46,0-.25,0-.29,.03-.37,.26-.59,1.71-1.22,3.41-1.84,5.11-.38,1.05-.75,2.1-1.16,3.13-.2,.51-.48,.98-.87,1.38-.52,.54-1.16,.82-1.9,.86-1.18,.07-2.23-.26-3.13-1.03-.06-.05-.12-.11-.18-.16-.11-.12-.12-.17-.03-.31,.08-.12,.16-.24,.25-.36,.24-.32,.49-.63,.74-.95,.03-.03,.05-.07,.08-.1,.15-.17,.23-.18,.4-.03,.17,.14,.34,.27,.53,.38,.17,.11,.36,.19,.56,.22,.47,.07,.92-.15,1.14-.58,.16-.3,.26-.62,.35-.94,.06-.2,0-.27-.21-.28-.17,0-.33,0-.5,0-.49,0-.74-.19-.9-.64-.45-1.29-.89-2.58-1.34-3.88-.21-.6-.41-1.2-.62-1.79-.09-.26-.12-.28-.39-.28-.12,0-.25,0-.37,0-.16-.01-.23-.08-.26-.24-.01-.06-.01-.13-.01-.2,0-.5,0-1,0-1.51,0-.07,0-.13,.01-.2,.02-.12,.09-.2,.21-.22,.08-.01,.16-.01,.24-.01,1.2,0,2.4,0,3.6,0,.37,0,.4,.04,.4,.4,0,.54,0,1.08,0,1.61,0,.31-.05,.36-.35,.36-.03,0-.06,0-.09,0-.15,.01-.17,.03-.13,.18,.05,.24,.12,.48,.18,.72,.25,.95,.5,1.9,.75,2.85,.02,.07,.04,.14,.06,.21,.05,.14,.15,.21,.3,.21,.13,0,.22-.06,.27-.21,.14-.41,.27-.83,.4-1.25,.25-.79,.5-1.58,.75-2.37,.1-.32,.08-.35-.26-.35-.09,0-.18,0-.26-.02-.2-.03-.26-.09-.28-.3,0-.05,0-.1,0-.15,0-.47,0-.95,0-1.42,0-.01,0-.03,0-.04,0-.36,.07-.43,.44-.43,.68,0,1.37,0,2.05,0Z"/><path class="cls-1" d="M49.6,27.57c0,.41,0,.83,0,1.24,0,.07,0,.13,0,.2-.02,.14-.1,.23-.23,.25-.11,.02-.22,.03-.33,.03-.39,0-.77,0-1.16,0-.04,0-.09,0-.13,0-.28-.03-.34-.07-.4-.34-.11-.49-.41-.8-.88-.97-.34-.12-.68-.15-1.03-.07-.36,.08-.56,.26-.59,.55-.03,.3,.14,.59,.44,.74,.24,.11,.5,.19,.76,.26,.72,.21,1.44,.42,2.15,.66,.89,.3,1.5,1.05,1.51,1.98,.02,.81-.24,1.52-.93,2.04-.59,.44-1.24,.67-1.98,.68-.52,0-1.05,0-1.56-.13-.47-.11-.91-.29-1.31-.57-.04-.03-.08-.06-.13-.08-.11-.06-.16-.04-.17,.09,0,.12,0,.23,0,.35,0,.22-.08,.29-.29,.3-.47,0-.95,0-1.42,0-.2,0-.28-.09-.3-.29,0-.06,0-.12,0-.17,0-.81,0-1.61,0-2.42,0-.05,0-.1,0-.15,.02-.23,.11-.33,.34-.33,.49,0,.99,0,1.48,0,.24,0,.39,.14,.48,.34,.2,.44,.54,.71,1.01,.83,.11,.03,.21,.06,.32,.07,.29,.05,.57,.08,.87,.02,.19-.04,.36-.12,.48-.28,.15-.2,.15-.39-.02-.57-.1-.12-.23-.2-.37-.27-.39-.2-.82-.3-1.25-.38-.48-.09-.95-.21-1.4-.4-.39-.16-.75-.37-1.02-.7-.53-.63-.65-1.35-.44-2.13,.28-1.03,1.14-2.02,2.47-2.16,.59-.07,1.17-.08,1.75,.07,.45,.11,.85,.32,1.18,.66,.05,.05,.1,.15,.19,.11,.09-.04,.05-.14,.05-.22,0-.09,0-.17,0-.26,.01-.19,.06-.24,.25-.26,.05,0,.1,0,.15,0,.31,0,.61,0,.92,0,.08,0,.16,0,.24,.02,.22,.03,.28,.11,.3,.33,0,.06,0,.12,0,.17,0,.4,0,.8,0,1.2Z"/><path class="cls-1" d="M15.73,34.8c-.61,0-1.22,0-1.83,0-.06,0-.12,0-.17,0-.27,0-.35-.09-.36-.35,0-.55,0-1.11,0-1.66,0-.28,.07-.34,.36-.35,.09,0,.19,0,.28,0,.15,0,.17-.03,.18-.19,0-.04,0-.09,0-.13,0-1.2,0-2.4,0-3.6,0-.36-.03-.39-.38-.39-.41,0-.45-.04-.45-.45,0-.47,0-.93,0-1.4,0-.07,0-.13,0-.2,.02-.24,.07-.29,.31-.29,.89,0,1.79,0,2.68,0,.28,0,.37,.09,.37,.36,0,.54,0,1.08,0,1.61,0,.08-.05,.2,.07,.22,.09,.02,.11-.1,.14-.17,.25-.49,.56-.92,.98-1.27,.42-.35,.92-.56,1.44-.71,.32-.1,.65-.14,.99-.17,.07,0,.15,0,.22,0,.23,.04,.31,.14,.31,.37,0,.77,0,1.54,0,2.31,0,.25-.1,.32-.36,.3-.47-.04-.94-.07-1.41,.03-.56,.12-1.05,.4-1.44,.82-.29,.32-.45,.69-.46,1.13,0,.5,0,1,0,1.51,0,.23,.05,.27,.29,.28,.13,0,.26,0,.39,0,.19,0,.24,.05,.24,.23,0,.61,0,1.22,0,1.83,0,.19-.09,.27-.28,.3-.07,0-.15,0-.22,0-.63,0-1.27,0-1.9,0Z"/><path class="cls-1" d="M42.57,24.72c-.08-.06-.08-.14-.1-.19-.21-.64-.78-.91-1.23-.9-.5,.01-1,0-1.51,0-.09,0-.19,0-.28-.03-.18-.05-.25-.13-.26-.31,0-.12,0-.25,0-.37,0-.52,0-1.03,0-1.55,0-.37,.14-.51,.5-.51,.68,0,1.35,0,2.03,0,.15,0,.31,.02,.45,.06,.55,.14,.88,.58,.92,1.21,.03,.57-.05,1.13-.21,1.68-.09,.3-.17,.6-.32,.9Z"/></svg>