<?xml version="1.0" encoding="UTF-8"?><svg id="Layer_1" xmlns="http://www.w3.org/2000/svg" viewBox="0 0 50 50"><defs><style>.cls-1{fill:#0a225d;}</style></defs><path class="cls-1" d="M24.93,12.87c-5.64,0-11.29,0-16.93,0-2.07,0-4.15,0-6.22,0-.21,0-.42,0-.63-.04-.93-.14-1.32-.67-1.15-1.59,.15-.76,.48-1.44,.88-2.1,.65-1.08,1.55-1.91,2.55-2.66,1.28-.96,2.63-1.79,4.08-2.48,2.02-.96,4.13-1.65,6.3-2.14,1.75-.39,3.52-.67,5.31-.84,1.08-.1,2.16-.17,3.24-.22,1.54-.08,3.08-.1,4.62-.07,1.46,.03,2.91,.13,4.36,.28,1.59,.17,3.17,.41,4.73,.76,2.53,.56,4.98,1.34,7.28,2.55,1.29,.68,2.5,1.48,3.58,2.47,.97,.89,1.81,1.88,2.45,3.04,.36,.66,.59,1.36,.61,2.12,.01,.48-.15,.69-.63,.8-.36,.09-.73,.11-1.1,.11-7.78,0-15.56,0-23.34,0Z"/><path class="cls-1" d="M24.85,40.34c2.81,0,5.63,0,8.44,0,4.92,0,9.85,0,14.77,0,.29,0,.58,0,.87,0,.08,0,.16,0,.24,0,.76,.08,1.05,.53,.74,1.23-.68,1.54-1.68,2.82-3.08,3.79-1.5,1.03-3.16,1.69-4.9,2.18-1.76,.5-3.55,.83-5.36,1.06-1.34,.17-2.68,.31-4.03,.39-.82,.05-1.64,.1-2.46,.13-.89,.04-1.78,.06-2.68,.09-2.21,.08-4.42,.04-6.63,.03-1.12,0-2.25-.07-3.37-.13-1.26-.07-2.52-.18-3.77-.35-2.55-.35-5.06-.87-7.43-1.91-1.63-.71-3.14-1.63-4.4-2.89-.73-.73-1.26-1.59-1.66-2.54-.07-.17-.11-.35-.13-.53-.03-.27,.1-.44,.36-.51,.16-.04,.33-.04,.5-.04,7.99,0,15.98,0,23.98,0Z"/><path class="cls-1" d="M30.08,31.3c.05-.07,.03-.15,.03-.23,0-1.26,.01-2.53,0-3.79-.01-1.15,.67-1.73,1.71-1.84,.65-.07,1.28,.02,1.83,.43,.35,.26,.55,.61,.57,1.06,0,.12,0,.25,0,.37,0,3.27-.02,6.54,.01,9.81,.01,1.01-.56,1.48-1.24,1.74-1.1,.41-2.04,.11-2.76-.81-1.35-1.73-2.72-3.44-4.08-5.16-.01-.02-.03-.03-.06-.05-.06,.08-.04,.17-.04,.25,0,1.39,0,2.78,0,4.16,0,.63-.22,1.14-.79,1.45-.5,.28-1.04,.37-1.6,.3-.46-.06-.89-.21-1.24-.53-.3-.28-.44-.62-.44-1.03-.05-3.01-.03-6.02-.03-9.03,0-.43-.01-.86-.02-1.29,0-.65,.28-1.12,.86-1.4,1-.48,2.21-.44,3.1,.64,1.06,1.29,2.14,2.56,3.21,3.85,.28,.34,.57,.68,.85,1.02,.03,.04,.05,.09,.12,.08Z"/><path class="cls-1" d="M48.53,34.07c0,.77,0,1.38,0,1.99,0,.34-.1,.63-.29,.89-.59,.83-1.41,1.35-2.33,1.73-.84,.34-1.72,.47-2.62,.47-.87,0-1.73,0-2.58-.18-1.48-.31-2.74-.98-3.69-2.19-.7-.89-1.12-1.92-1.34-3.02-.39-1.94-.12-3.77,.91-5.47,.61-1,1.49-1.73,2.51-2.3,1.02-.56,2.12-.77,3.27-.83,1.07-.06,2.12,.04,3.14,.35,.84,.25,1.59,.67,2.25,1.26,.3,.27,.42,.63,.4,1.02-.05,.82-.74,1.58-1.54,1.74-.33,.06-.65-.03-.96-.15-.64-.25-1.27-.55-1.96-.64-1.04-.13-2.03,0-2.92,.6-.27,.18-.47,.41-.62,.69-.49,.92-.71,1.9-.53,2.93,.33,1.88,1.83,2.91,3.71,2.58,.28-.05,.55-.12,.79-.29,.28-.2,.4-.47,.37-.81-.02-.3-.1-.37-.4-.33-.36,.04-.71,0-1.05-.13-.63-.27-.88-.81-.92-1.44-.05-.79,.47-1.88,1.64-1.86,.21,0,.42,0,.63,0,.86,0,1.72,0,2.57,.01,.17,0,.35,.02,.52,.05,.61,.11,.91,.46,.99,1.13,.1,.79,.02,1.58,.05,2.22Z"/><path class="cls-1" d="M6.42,30.86c1.15-1.23,2.26-2.42,3.36-3.61,.34-.36,.67-.73,.99-1.1,.98-1.09,2.71-.93,3.44,.33,.34,.59,.23,1.38-.26,1.92-.97,1.05-1.95,2.1-2.92,3.14-.13,.14-.24,.29-.38,.42-.12,.11-.1,.19,0,.29,.58,.63,1.16,1.26,1.74,1.89,.53,.58,1.06,1.17,1.6,1.75,.74,.79,.58,1.72-.12,2.42-.77,.78-1.97,.87-2.78,.23-.31-.25-.56-.57-.83-.87-.65-.7-1.29-1.42-1.93-2.13-.57-.63-1.14-1.26-1.71-1.89-.05-.05-.09-.12-.16-.14-.07,.06-.04,.13-.04,.2,0,1.13,0,2.25,0,3.38,0,.14,.03,.27,.02,.41-.02,.49-.28,.85-.68,1.08-.9,.51-1.82,.56-2.74,.05-.44-.24-.66-.65-.67-1.15,0-3.47-.01-6.95-.01-10.42,0-.7,.43-1.23,1.2-1.48,.65-.21,1.3-.21,1.94,.05,.6,.24,.94,.74,.94,1.39,0,1.18,0,2.37,0,3.55v.29Z"/><path class="cls-1" d="M34.3,20.8c0,.41-.02,.72,0,1.03,.05,.56-.22,.97-.61,1.3-.75,.64-1.64,.93-2.63,.97-.69,.02-1.38,.01-2.05-.14-1.35-.3-2.3-1.09-2.85-2.37-.53-1.23-.6-2.48-.14-3.74,.54-1.5,1.63-2.43,3.16-2.79,1.12-.27,2.25-.23,3.35,.16,.46,.16,.88,.41,1.25,.74,.3,.27,.33,.62,.21,.98-.23,.71-.93,1.03-1.62,.75-.48-.2-.96-.4-1.48-.43-.71-.03-1.39,.08-1.91,.62-.36,.37-.48,.86-.55,1.35-.11,.78,.09,1.48,.68,2.05,.51,.48,1.5,.64,2.13,.33,.24-.12,.39-.29,.38-.58-.01-.21-.08-.25-.29-.24-.37,.02-.73,0-.99-.33-.31-.38-.36-.8-.18-1.25,.18-.44,.49-.69,.99-.68,.74,0,1.48,0,2.23,.01,.55,0,.82,.25,.89,.81,.07,.51,.01,1.03,.03,1.45Z"/><path class="cls-1" d="M19.85,32.27c0,1.67-.01,3.34,0,5.02,0,.72-.32,1.21-.95,1.5-.74,.34-1.51,.37-2.26,.02-.59-.28-.9-.75-.9-1.42,0-3.37,.02-6.75,0-10.12,0-.99,.6-1.52,1.34-1.7,.59-.14,1.17-.13,1.73,.09,.71,.28,1.03,.75,1.03,1.5,0,1.71,0,3.42,0,5.12Z"/><path class="cls-1" d="M8.07,19.18c.53,.27,.9,.69,1.15,1.2,.73,1.5-.34,3.44-1.99,3.63-.86,.1-1.73,.03-2.59,.04-.44,0-.89,.04-1.33-.03-.63-.11-.94-.46-.94-1.1,0-.44,0-.89,0-1.33,0-1.77,0-3.53,0-5.3,0-.79,.43-1.26,1.23-1.28,1-.02,2.01-.04,3.01,0,.83,.04,1.6,.31,2.11,1.04,.56,.8,.65,2.21-.48,3-.05,.03-.09,.07-.15,.12Zm-3.04,2.03c0,.25,0,.51,0,.76,0,.14,.05,.2,.19,.19,.2,0,.39,0,.59,0,.48-.02,.88-.46,.88-.97,0-.49-.37-.9-.86-.93-.2-.01-.41,0-.61,0-.16,0-.2,.07-.2,.21,0,.25,0,.49,0,.74Zm0-3.51c0,.22,0,.44,0,.65,0,.13,.04,.19,.18,.19,.17,0,.33,0,.5,0,.45-.03,.75-.32,.79-.75,.03-.43-.24-.8-.66-.9-.2-.05-.41-.01-.61-.03-.14-.01-.2,.04-.2,.19,0,.22,0,.44,0,.65Z"/><path class="cls-1" d="M44.25,20.72c-.06,.09-.04,.17-.04,.24,0,.62,0,1.24,0,1.85,0,.79-.36,1.2-1.15,1.27-.42,.04-.81-.03-1.15-.3-.23-.18-.36-.41-.36-.71,0-2.35,0-4.71,0-7.06,0-.64,.42-1.02,1.05-1.02,1.05,0,2.09,0,3.14,0,1.47,0,2.7,1.21,2.71,2.68,0,.83-.25,1.56-.84,2.15-.08,.08-.17,.14-.26,.2-.23,.15-.23,.15-.07,.35,.5,.64,.99,1.27,1.49,1.91,.27,.35,.27,.67,.02,1.02-.35,.47-.83,.73-1.4,.78-.38,.04-.69-.13-.92-.44-.68-.9-1.36-1.81-2.05-2.72-.05-.06-.1-.13-.16-.21Zm-.04-2.86c0,.28,0,.55,0,.83,0,.1,0,.2,.14,.19,.25,0,.49,.01,.73-.06,.42-.13,.7-.55,.68-1.03-.02-.47-.32-.82-.78-.91-.19-.04-.38-.01-.56-.03-.15-.01-.21,.05-.21,.2,0,.27,0,.54,0,.81Z"/><path class="cls-1" d="M20.95,20.67c0,.81,0,1.57,0,2.32,0,.49-.24,.83-.71,.98-.61,.2-1.19,.16-1.69-.28-.17-.15-.24-.34-.24-.56,0-2.39,0-4.78,0-7.17,0-.57,.43-.97,.99-.97,1.05,0,2.09,.03,3.14,0,1.37-.05,2.59,1.14,2.72,2.25,.12,.96-.08,1.83-.77,2.56-.05,.06-.12,.1-.18,.16-.09,.1-.29,.1-.3,.25,0,.13,.15,.22,.23,.33,.43,.55,.84,1.11,1.29,1.64,.35,.41,.38,.88-.03,1.28-.43,.43-.94,.71-1.58,.6-.32-.05-.52-.28-.7-.52-.68-.9-1.36-1.8-2.03-2.7-.03-.04-.07-.09-.14-.17Zm0-2.81c0,.28,0,.57,0,.85,0,.12,.04,.18,.17,.17,.23,0,.46,0,.69-.05,.41-.1,.72-.53,.71-1,0-.48-.3-.85-.74-.94-.22-.05-.43-.03-.65-.03-.13,0-.18,.06-.18,.18,0,.28,0,.55,0,.83Z"/><path class="cls-1" d="M17.24,18.82c0,.82-.03,1.64,0,2.46,.05,1.1-.48,1.84-1.42,2.32-.82,.42-1.69,.53-2.6,.45-.7-.06-1.36-.23-1.96-.6-.75-.46-1.17-1.11-1.16-2.03,.02-1.76,.02-3.52,0-5.28,0-.71,.47-1.07,1.03-1.16,.3-.05,.59-.03,.88,.05,.57,.16,.85,.52,.85,1.11,0,1.62,.02,3.24,0,4.86-.01,.75,.75,1.04,1.3,.77,.26-.13,.37-.36,.36-.64,0-1.62,.03-3.24-.01-4.86-.02-.95,.52-1.23,1.23-1.31,.3-.04,.59,.02,.87,.14,.4,.16,.63,.5,.63,.93,0,.93,0,1.86,0,2.79Z"/><path class="cls-1" d="M35.25,19.47c0-1.1,0-2.19,0-3.29,0-.71,.41-1.16,1.12-1.18,1.17-.02,2.34,0,3.51,0,.4,0,.67,.23,.8,.6,.13,.34,.12,.69-.02,1.02-.16,.37-.45,.58-.87,.58-.5,0-1,0-1.5,0-.27,0-.29,.01-.29,.28,0,.2,.01,.41,0,.61-.02,.21,.05,.3,.28,.29,.41-.02,.83,0,1.24,0,.52,0,.87,.28,.98,.76,.13,.57-.06,1.09-.5,1.32-.18,.09-.38,.11-.57,.11-.4,0-.8,0-1.2-.03-.16-.02-.22,.04-.22,.21,0,.3,0,.61,0,.92,0,.16,.06,.22,.22,.22,.54,0,1.09,.02,1.63,.02,.56,0,.86,.3,.95,.76,.08,.4,.1,.81-.21,1.15-.16,.17-.35,.26-.58,.26-1.21,0-2.43,0-3.64,0-.63,0-1.13-.54-1.13-1.2,0-1.13,0-2.25,0-3.38Z"/></svg>