<?xml version="1.0" encoding="UTF-8"?><svg id="Layer_1" xmlns="http://www.w3.org/2000/svg" viewBox="0 0 50 50"><defs><style>.cls-1{fill:#0a225d;}</style></defs><path class="cls-1" d="M24.42,31.72c-.16,.1-.3,.18-.44,.27-2.91,2.13-5.81,4.26-8.72,6.39-.76,.56-1.61,.61-2.44,.21-.76-.36-1.2-1.02-1.37-1.83-.08-.35-.05-.71,.02-1.06,.2-1,.56-1.94,.87-2.91,.82-2.58,1.65-5.16,2.48-7.74,.02-.05,.05-.1,.04-.15,0-.05-.02-.12-.05-.16-.05-.06-.12-.1-.18-.14-2.89-2.14-5.78-4.28-8.67-6.42-1-.74-1.37-2.13-.82-3.23,.46-.92,1.22-1.42,2.25-1.42,3.55-.01,7.1,0,10.65,0,.06,0,.12,0,.18,0,.29,0,.25,.02,.34-.23,.22-.63,.44-1.25,.64-1.88,.66-2.05,1.31-4.1,1.97-6.16,.27-.83,.51-1.67,.8-2.5,.62-1.81,2.89-2.33,4.17-.92,.29,.33,.52,.69,.65,1.11,1.1,3.42,2.22,6.83,3.33,10.25,.09,.27,.06,.26,.34,.26,1.82,0,3.64,0,5.46,0,1.78,0,3.57-.02,5.35-.04,.29,0,.56,.05,.82,.16,.91,.38,1.5,1.05,1.67,2.02,.16,.9-.11,1.71-.79,2.34-.75,.7-1.6,1.26-2.42,1.87-2.15,1.6-4.31,3.19-6.47,4.78-.02,.01-.04,.03-.06,.04-.13,.07-.17,.16-.12,.32,.19,.6,.34,1.2,.53,1.79,.93,2.91,1.86,5.81,2.79,8.72,.25,.78,.16,1.55-.27,2.22-.62,.98-1.84,1.41-2.89,.97-.4-.17-.76-.37-1.11-.63-2.77-2.05-5.54-4.09-8.31-6.14-.07-.05-.15-.11-.25-.18Zm-.02-2.16c.07,.05,.13,.09,.19,.14,2.34,1.72,4.68,3.44,7.02,5.16,.95,.69,1.91,1.36,2.86,2.05,.13,.09,.26,.15,.42,.15,.37-.02,.61-.21,.7-.58,.05-.2,.03-.39-.03-.58-1.25-3.87-2.5-7.74-3.74-11.61-.01-.04-.02-.09-.03-.14,.07-.05,.13-.11,.2-.16,3.09-2.28,6.17-4.57,9.26-6.85,.24-.18,.46-.38,.65-.6,.28-.33,.24-.94-.26-1.12-.19-.07-.37-.12-.58-.12-3.92,0-7.83,0-11.75,0-.38,0-.33,.05-.45-.33-1.18-3.65-2.35-7.31-3.53-10.96-.09-.27-.2-.54-.33-.8-.21-.44-.79-.53-1.14-.2-.18,.17-.28,.39-.35,.63-1.2,3.77-2.4,7.55-3.6,11.32-.03,.11-.08,.21-.12,.34h-.32c-3.79,0-7.59,0-11.38,0-.31,0-.62,.06-.93,.09-.13,.01-.23,.08-.31,.18-.17,.22-.25,.47-.13,.75,.1,.23,.25,.41,.45,.56,3.19,2.35,6.37,4.71,9.55,7.07,.07,.05,.14,.11,.21,.17-.03,.09-.05,.17-.07,.24-.59,1.86-1.19,3.71-1.78,5.57-.6,1.87-1.2,3.74-1.8,5.62-.09,.29-.14,.58-.1,.88,.07,.57,.66,.83,1.13,.51,.07-.05,.14-.1,.2-.15,3.23-2.36,6.46-4.72,9.69-7.07,.06-.04,.12-.08,.19-.13Z"/><path class="cls-1" d="M6.1,40.77c.04-.09,.08-.19,.12-.29,.11-.26,.3-.42,.6-.41,0,0,.02,0,.02,0,.58-.04,.86,.12,.92,.82,.02,.22-.01,.44-.05,.66-.07,.41-.06,.82,.02,1.23,.11,.57-.11,.9-.7,1.06-.29,.08-.59,.06-.88-.04-.22-.07-.36-.22-.4-.46-.02-.11-.03-.21-.03-.32,0-.14,0-.29,0-.43-.01-.2-.1-.36-.25-.5-.27-.25-.6-.37-.96-.37-.23,0-.48,0-.7,.04-.52,.11-.88,.43-1.05,.92-.35,1.02-.44,2.07-.17,3.12,.05,.18,.12,.34,.18,.52,.15,.4,.45,.64,.84,.78,.49,.17,.99,.19,1.48,.02,.47-.16,.65-.43,.67-.92,0-.21,.01-.43,.04-.64,.05-.32,.27-.55,.6-.6,.19-.03,.4-.04,.59-.03,.37,.03,.61,.25,.77,.57,.19,.39,.19,.79,.1,1.21-.11,.53-.39,.97-.81,1.32-.45,.38-.96,.61-1.53,.74-.98,.22-1.96,.23-2.93-.1-.23-.08-.45-.18-.67-.29-.94-.5-1.49-1.3-1.75-2.31-.37-1.44-.24-2.84,.36-4.2,.21-.48,.56-.85,.98-1.15,.56-.4,1.19-.6,1.87-.68,.66-.08,1.29,0,1.89,.28,.27,.13,.51,.3,.79,.46Z"/><path class="cls-1" d="M41.25,44.09c-.02,.76-.04,1.52-.06,2.28-.02,.63-.27,1.16-.73,1.6-.62,.6-1.35,.91-2.22,.92-.57,0-1.14,0-1.7-.18-.64-.2-1.18-.53-1.6-1.04-.71-.85-.64-2.09,.16-2.86,.41-.39,.89-.62,1.45-.64,.48-.02,.94,.09,1.33,.39,.53,.4,.6,.97,.36,1.49-.21,.44-.82,.66-1.25,.45-.1-.05-.18-.16-.26-.25-.11-.13-.18-.12-.25,.02-.12,.24-.06,.46,.09,.66,.37,.51,1.42,.61,1.88,.18,.26-.24,.38-.55,.43-.89,.03-.19,.05-.39,.05-.59,0-.96-.01-1.92-.02-2.88,0-.26-.08-.48-.23-.68-.18-.24-.41-.35-.72-.29-.14,.03-.29,.04-.43,.06-.26,.03-.44-.08-.57-.29-.23-.37-.13-.93,.21-1.17,.11-.08,.23-.12,.36-.11,.54,.02,1.08,.03,1.62,.06,.68,.04,1.35,.1,2.03,.02,.19-.02,.37-.07,.56-.09,.23-.02,.47-.05,.7-.03,.34,.02,.59,.28,.63,.62,.03,.25,.03,.5-.12,.73-.12,.18-.27,.31-.51,.28-.12-.02-.24-.03-.36-.03-.17,0-.34,0-.5,.03-.27,.05-.39,.22-.39,.5,0,.58,0,1.16,0,1.74h.06Z"/><path class="cls-1" d="M12.82,48.11c-.41,.29-.84,.5-1.32,.62-.67,.16-1.34,.16-2-.06-.06-.02-.13-.04-.19-.07-1.05-.47-1.41-1.81-.75-2.76,.18-.26,.44-.42,.72-.54,.39-.18,.81-.24,1.23-.32,.34-.07,.69-.14,1.02-.23,.15-.04,.3-.11,.44-.18,.38-.2,.47-.71,.19-1.04-.16-.19-.36-.3-.62-.3-.08,0-.17,0-.25,0-.22,0-.32,.08-.37,.29-.03,.12-.04,.24-.05,.36-.02,.2-.11,.34-.28,.45-.44,.28-1.21,.36-1.67-.11-.29-.3-.36-.64-.24-1.03,.12-.37,.37-.62,.74-.76,.62-.24,1.27-.36,1.94-.38,.54-.01,1.06,.06,1.57,.23,.44,.14,.73,.45,.98,.81,.04,.05,.05,.13,.06,.19,.14,.64,.15,1.3,.16,1.96,.01,.55,0,1.1,.02,1.65,0,.27,.05,.32,.32,.39,.06,.01,.12,.03,.18,.04,.33,.06,.46,.19,.5,.53,.06,.44-.19,.82-.61,.94-.52,.15-1.01,.09-1.43-.29-.11-.1-.19-.23-.31-.37Zm-.58-2.22c-.07,0-.1,0-.14,.01-.37,.09-.74,.18-1.1,.29-.19,.06-.38,.15-.57,.23-.11,.05-.15,.14-.17,.25-.05,.35,.18,.65,.53,.73,.52,.11,.94-.1,1.31-.42,.07-.06,.12-.18,.15-.28,.06-.26,.03-.53-.02-.81Z"/><path class="cls-1" d="M28.52,48.27s-.05,.08-.07,.11c-.08,.16-.16,.32-.35,.37-.26,.06-.53,.09-.78-.04-.09-.04-.15-.1-.15-.21,0-.34-.03-.68-.02-1.02,0-.27,.04-.55,.04-.82,0-.17,.06-.27,.19-.36,.35-.24,1.18-.21,1.47,.33,.06,.11,.12,.21,.17,.32,.14,.29,.35,.46,.68,.51,.33,.06,.65,.11,.97,.02,.15-.04,.31-.1,.44-.18,.24-.15,.24-.47,.05-.67-.14-.14-.3-.22-.5-.26-.53-.1-1.06-.2-1.59-.32-.25-.06-.49-.16-.73-.26-.61-.29-.86-.8-.89-1.45-.05-1.05,.62-1.89,1.68-2.1,.84-.17,1.64-.07,2.39,.36,.03,.01,.05,.02,.08,.04,.02-.02,.04-.03,.05-.05,.12-.31,.38-.39,.68-.39,.55,0,.67,.13,.63,.68,0,.13-.04,.26-.04,.39,0,.15,.02,.3,.03,.45,0,.05,.01,.11,.03,.16,.09,.36-.15,.6-.46,.66-.31,.06-.59,.03-.84-.18-.19-.16-.36-.33-.54-.49-.2-.19-.43-.35-.71-.39-.25-.03-.49,0-.7,.13-.16,.1-.29,.23-.26,.45,.04,.23,.17,.4,.39,.46,.22,.06,.45,.1,.67,.14,.45,.09,.9,.16,1.34,.28,.28,.07,.55,.19,.79,.34,.46,.28,.69,.72,.72,1.25,.04,.94-.38,1.65-1.24,2.04-.93,.42-1.88,.46-2.84,.09-.2-.08-.38-.19-.57-.29-.07-.03-.13-.07-.2-.1Z"/><path class="cls-1" d="M44.73,43.52c.06-.1,.12-.2,.19-.3,.29-.46,.69-.79,1.23-.91,.71-.16,1.36-.06,1.92,.43,.39,.33,.49,.75,.42,1.24,0,.05-.02,.09-.03,.13-.19,.86-.92,1.01-1.48,.86-.57-.15-.74-.69-.4-1.16,.03-.03,.05-.07,.08-.11-.1-.07-.2-.06-.3-.03-.42,.11-.76,.32-.96,.73-.19,.39-.26,.81-.27,1.24,0,.47,.02,.94,.03,1.42,0,.14,.08,.23,.21,.26,.09,.02,.18,.02,.27,.02,.13,0,.26-.03,.39-.04,.61-.05,.87,.54,.7,.94-.13,.33-.37,.53-.77,.53-.41,0-.82-.03-1.23-.05-.76-.05-1.52-.08-2.28,.04-.06,.01-.14,0-.2-.03-.38-.13-.72-.81-.31-1.26,.11-.12,.24-.18,.4-.17,.13,.01,.26,.03,.39,.05,.08,0,.17,.02,.25,0,.14-.02,.21-.1,.24-.24,0-.04,0-.09,0-.14,0-.93,0-1.86,.01-2.79,0-.29-.18-.43-.44-.43-.04,0-.08,0-.11,.01-.11,.02-.23,.04-.34,.05-.09,0-.18,.02-.27,0-.13-.01-.26-.06-.32-.19-.22-.53-.14-.96,.43-1.23,.07-.03,.16-.04,.24-.03,.59,.1,1.18,.1,1.77,0,.19-.03,.27,0,.34,.18,.05,.12,.07,.26,.08,.4,.02,.19,.03,.38,.04,.56h.06Z"/><path class="cls-1" d="M18.2,43.58c.05-.1,.08-.15,.11-.21,.34-.66,.86-1.05,1.61-1.11,.38-.03,.75-.02,1.1,.11,.68,.23,1.08,.84,1,1.54-.09,.86-.93,1.39-1.72,1.01-.41-.2-.52-.6-.29-.99,.05-.08,.1-.15,.16-.24-.17-.05-.32-.02-.46,.02-.33,.1-.57,.31-.74,.6-.21,.36-.31,.75-.32,1.16-.01,.51,0,1.02,.01,1.53,0,.22,.16,.36,.4,.34,.12,0,.24-.04,.36-.06,.38-.06,.68,.15,.74,.53,.04,.25-.01,.49-.18,.68-.12,.14-.25,.24-.45,.23-.46-.02-.93-.01-1.39-.04-.69-.04-1.38-.1-2.07,.05-.05,.01-.11,0-.15-.01-.42-.14-.65-.76-.44-1.14,.11-.2,.36-.39,.67-.3,.07,.02,.15,.04,.22,.05,.19,.03,.31-.05,.33-.24,.02-.14,.02-.27,.02-.41,.02-.8,.04-1.6-.03-2.4,0-.08-.02-.15-.03-.23-.03-.2-.08-.27-.29-.29-.15-.02-.3,.01-.45,.02-.07,0-.13,.03-.2,.03-.26,.01-.44-.11-.53-.35-.14-.39,.05-.87,.42-1.05,.05-.03,.12-.04,.17-.04,.25,0,.5,0,.75,.02,.42,.03,.83,.06,1.25-.02,.16-.03,.25,.02,.29,.18,.04,.16,.04,.33,.04,.5,0,.17-.01,.33,.08,.54Z"/><path class="cls-1" d="M22.59,44.41c0-.69,0-1.39,0-2.08,0-.1,0-.22-.05-.31-.19-.42-.28-.39-.61-.33-.1,.02-.21,.04-.32,.05-.42,.05-.75-.25-.74-.67,0-.39,.3-.72,.7-.73,.42,0,.84,.02,1.25,.06,.33,.03,.65,.02,.98-.04,.12-.02,.24-.03,.36-.04,.32,0,.47,.15,.47,.47,0,2.01,0,4.02,0,6.03,0,.42,.13,.52,.55,.46,.07-.01,.14-.02,.2-.03,.28-.05,.42,.02,.57,.26,.11,.17,.16,.36,.14,.57-.03,.36-.31,.63-.69,.64-.22,0-.44,0-.66-.06-.44-.1-.88-.08-1.32-.05-.48,.03-.96,.06-1.44,.07-.28,0-.54-.09-.79-.21-.16-.08-.24-.2-.28-.37-.04-.17-.02-.33,.03-.5,.06-.2,.21-.32,.42-.32,.17,0,.35,.03,.52,.04,.41,.03,.53-.05,.63-.45,.05-.22,.06-.45,.06-.68,0-.6,0-1.2,0-1.8h-.01Z"/><path class="cls-1" d="M27.44,41.85c0,.46-.1,.89-.34,1.28-.21,.35-.42,.69-.71,.98-.11,.11-.24,.21-.37,.3-.16,.12-.33,.11-.49,.03-.19-.09-.26-.23-.2-.43,.04-.13,.1-.26,.17-.37,.1-.16,.23-.31,.34-.46,.06-.09,.13-.19,.17-.29,.07-.17,.03-.31-.13-.42-.04-.03-.09-.06-.14-.08-.35-.1-.48-.37-.56-.68-.03-.12-.04-.24-.03-.36,.01-.59,.38-.95,.97-.96,.11,0,.23,0,.34,.02,.6,.12,.92,.48,.98,1.1,.01,.11,.01,.23,.02,.34Z"/><path class="cls-1" d="M47.51,47.79c0-.58,.45-1.09,1.03-1.17,.3-.04,.59-.01,.86,.15,.39,.23,.61,.58,.61,1.03,0,.44-.22,.79-.61,1.01-.72,.42-1.64,.04-1.85-.75-.02-.09-.03-.18-.04-.27Z"/><path class="cls-1" d="M24.82,25.57c.96-.01,2.05-.54,3-1.41,.13-.12,.25-.26,.38-.39,.1-.1,.12-.22,.07-.36-.04-.1-.08-.2-.12-.3-.03-.09-.06-.17-.07-.26-.01-.11,.05-.21,.14-.27,.1-.07,.2-.03,.28,.03,.1,.08,.19,.17,.27,.28,.21,.29,.45,.53,.8,.65,.04,.01,.07,.03,.1,.05,.16,.1,.22,.26,.14,.41-.08,.16-.25,.23-.42,.18-.45-.14-.6-.11-.83,.29-.27,.46-.65,.78-1.05,1.09-.71,.56-1.5,.97-2.39,1.13-.74,.14-1.46,.08-2.16-.18-1.15-.44-2.11-1.14-2.85-2.14-.15-.2-.31-.28-.54-.23-.13,.02-.26,.02-.39,.02-.11,0-.2-.05-.23-.16-.03-.12-.05-.25,.06-.34,.1-.07,.2-.14,.31-.2,.3-.16,.56-.36,.74-.66,.04-.06,.09-.12,.14-.18,.08-.08,.16-.15,.28-.1,.11,.05,.22,.21,.2,.33-.01,.09-.05,.18-.08,.26-.03,.09-.08,.16-.11,.25-.06,.17-.03,.32,.09,.46,.94,1.05,2.46,1.73,4.23,1.73Z"/><path class="cls-1" d="M25.97,19.48s0-.07,0-.11c.03-.18,.09-.27,.26-.26,.31,.02,.56-.1,.81-.25,.12-.07,.27-.11,.4-.15,.29-.07,.54-.02,.75,.21,.11,.13,.23,.25,.35,.36,.16,.15,.34,.25,.56,.26,.22,.01,.33,.18,.27,.4-.07,.29-.38,.52-.68,.49-.13-.01-.27-.05-.4-.09-.08-.02-.16-.05-.23-.1-.33-.19-.66-.24-1.02-.09-.09,.04-.19,.04-.29,.05-.46,.04-.78-.25-.79-.73Z"/><path class="cls-1" d="M21.15,18.64c.16,.05,.32,.1,.47,.16,.1,.04,.2,.11,.29,.17,.19,.12,.38,.19,.61,.15,.14-.02,.2,.04,.24,.15,.15,.36-.07,.8-.45,.9-.23,.06-.45,.07-.67-.03-.08-.03-.17-.06-.26-.08-.15-.04-.28-.01-.42,.05-.22,.11-.44,.21-.67,.29-.32,.11-.58,0-.8-.24-.12-.13-.13-.29-.08-.45,.03-.11,.1-.19,.23-.18,.25,0,.43-.12,.6-.29,.12-.12,.24-.25,.37-.37,.15-.14,.32-.23,.54-.25Z"/><path class="cls-1" d="M24.62,22.38c-.64-.01-1.13-.1-1.58-.35-.24-.13-.26-.3-.05-.47,.09-.07,.19-.14,.29-.17,.59-.19,1.19-.27,1.79-.1,.22,.06,.42,.16,.62,.28,.19,.11,.2,.27,.06,.44-.11,.14-.26,.24-.44,.27-.28,.05-.55,.09-.7,.11Z"/><path class="cls-1" d="M28.86,16.53c.16,.04,.32,.07,.48,.11,.16,.04,.22,.17,.24,.33,.03,.35-.24,.62-.59,.59-.17-.02-.33-.05-.49-.09-.2-.04-.39-.04-.58,.03-.06,.02-.13,.04-.2,.05-.23,.03-.36-.13-.26-.34,.05-.1,.14-.21,.23-.27,.35-.25,.74-.39,1.17-.42Z"/><path class="cls-1" d="M19.84,16.56c.5,.01,.91,.18,1.3,.44,.09,.06,.15,.17,.19,.27,.07,.18-.06,.31-.25,.29-.06,0-.12-.03-.17-.05-.18-.08-.37-.08-.56-.04-.18,.04-.36,.07-.54,.09-.36,.03-.6-.18-.61-.55,0-.21,.07-.32,.27-.4,.04-.02,.09-.03,.13-.04,.09-.01,.18-.01,.25-.02Z"/></svg>