<?xml version="1.0" encoding="UTF-8"?><svg id="Layer_1" xmlns="http://www.w3.org/2000/svg" viewBox="0 0 50 50"><defs><style>.cls-1{fill:#0a225d;}</style></defs><path class="cls-1" d="M28.71,49.79c0-.1,.07-.14,.12-.19,1.24-1.22,2.3-2.59,3.23-4.05,.79-1.25,1.48-2.55,2.07-3.9,.71-1.63,1.28-3.32,1.71-5.05,.31-1.27,.55-2.56,.69-3.86,.07-.61,.11-1.22,.15-1.83,.04-.64,.04-1.29,.02-1.93-.05-1.49-.26-2.96-.74-4.39-.45-1.35-1.11-2.59-2.07-3.66-.85-.95-1.85-1.68-3.01-2.2-1.02-.46-2.1-.73-3.21-.87-.8-.1-1.61-.12-2.42-.07-1.1,.07-2.19,.27-3.25,.58-1.62,.48-3.13,1.19-4.57,2.06-1.15,.7-2.24,1.5-3.26,2.39-.6,.52-1.2,1.06-1.75,1.63-.92,.95-1.79,1.95-2.6,3-1.32,1.71-2.48,3.53-3.49,5.43-.81,1.53-1.52,3.11-2.11,4.74-.07,.18-.13,.37-.2,.55-.03,.07-.03,.16-.12,.19C-.72,31.48-2.13,19.76,5.11,10.1c2.42-3.23,5.48-5.7,9.12-7.45C17.87,.9,21.72,.1,25.75,.19c1.16,.03,2.32,.13,3.49,.36-.11,.16-.24,.23-.36,.32-1.63,1.29-2.63,2.96-2.98,5.01-.09,.53-.2,1.06-.25,1.6-.05,.66-.09,1.31-.05,1.97,.05,.79,.16,1.56,.36,2.32,.23,.86,.57,1.68,1.13,2.39,.38,.48,.83,.87,1.41,1.1,.77,.31,1.54,.25,2.29-.06,.83-.34,1.5-.9,2.1-1.55,.63-.7,1.14-1.47,1.57-2.3,.5-.97,.87-1.98,1.12-3.04,.11-.44,.2-.88,.26-1.34,.09-.68,.09-1.36,0-2.04-.1-.83-.32-1.63-.64-2.4-.02-.05-.06-.1-.02-.16,.08-.03,.15,.03,.21,.06,1.64,.75,3.18,1.66,4.62,2.75,.59,.44,1.16,.9,1.7,1.41,.15,.14,.15,.16-.02,.27-.78,.49-1.5,1.05-2.18,1.67-1.31,1.19-2.43,2.53-3.29,4.08-.62,1.11-1.06,2.29-1.17,3.57-.07,.84,.03,1.66,.44,2.42,.37,.69,.93,1.18,1.63,1.51,.65,.31,1.34,.46,2.06,.5,.29,.02,.58,.05,.87,.03,.89-.05,1.76-.18,2.62-.41,2.1-.57,4-1.55,5.73-2.86,.28-.22,.28-.29,.41,.13,.47,1.51,.82,3.04,1.02,4.61,.18,1.42,.22,2.84,.16,4.27-.08,1.66-.33,3.3-.75,4.92-.39,1.52-.92,2.99-1.58,4.42-.89,1.9-2,3.66-3.32,5.28-.74,.91-1.54,1.75-2.4,2.55-.93,.86-1.92,1.64-2.97,2.34-1.35,.9-2.78,1.67-4.28,2.3-1.23,.52-2.5,.93-3.79,1.24-.65,.16-1.3,.28-1.96,.39-.07,.01-.14,.02-.22-.01ZM23.82,11.86c.02-.26-.02-.6-.06-.94-.13-1.07-.41-2.09-.85-3.07-.53-1.19-1.25-2.24-2.28-3.06-.62-.49-1.32-.82-2.11-.91-1.4-.16-2.76,.62-3.35,1.9-.43,.95-.49,1.93-.34,2.95,.15,.99,.48,1.93,.95,2.82,.66,1.26,1.5,2.37,2.62,3.25,.71,.56,1.48,1,2.4,1.11,.65,.08,1.25-.06,1.77-.47,.45-.36,.73-.83,.92-1.36,.25-.69,.33-1.4,.34-2.21Zm-9.47,7.42c.21,0,.48-.01,.74-.09,.84-.23,1.33-.86,1.36-1.73,.02-.66-.14-1.27-.42-1.86-.49-1.02-1.2-1.87-2.1-2.55-.58-.44-1.21-.78-1.93-.92-1.01-.21-1.91-.03-2.64,.77-.45,.5-.63,1.1-.6,1.75,.04,.82,.38,1.53,.88,2.16,.68,.86,1.53,1.5,2.52,1.96,.68,.31,1.39,.53,2.21,.51Zm23.08,17.89c.2-.13,.39-.25,.59-.38,1.6-1.04,3.29-1.88,5.12-2.43,.57-.17,1.14-.34,1.71-.51,.16-.05,.31-.11,.45-.2,.2-.14,.31-.32,.31-.57,0-.3-.11-.57-.26-.82-.18-.29-.4-.54-.64-.78-.63-.63-1.34-1.16-2.1-1.62-1.01-.61-2.07-1.11-3.21-1.42-.28-.08-.56-.14-.85-.17-.23-.02-.23-.02-.23,.2,0,.05,0,.11,0,.16,0,.67,0,1.33-.03,2-.03,.71-.09,1.42-.17,2.13-.15,1.4-.38,2.79-.7,4.17-.02,.07-.06,.15,.01,.24Z"/><path class="cls-1" d="M32.49,30.01c.03,2.08-.28,4-.77,5.9-.59,2.31-1.45,4.52-2.56,6.63-.68,1.29-1.45,2.51-2.37,3.64-.78,.96-1.64,1.83-2.69,2.51-.74,.48-1.54,.84-2.42,.97-.79,.12-1.56,.05-2.29-.32-.5-.26-.9-.63-1.19-1.1-.49-.77-.73-1.63-.78-2.54-.13-2.55,.54-4.9,1.85-7.07,.31-.52,.64-1.02,.93-1.55,.19-.35,.34-.7,.43-1.09,.06-.24,.06-.48,.03-.72-.08-.57-.61-1.09-1.18-1.2-.49-.09-.91,.05-1.32,.29-.59,.35-1.06,.84-1.49,1.36-1.28,1.54-2.12,3.3-2.66,5.22-.32,1.13-.51,2.28-.59,3.45-.06,.89-.02,1.77,.1,2.65,.01,.07,.06,.17-.02,.22-.07,.05-.15-.03-.21-.06-.99-.52-1.94-1.12-2.85-1.78-1.06-.76-2.05-1.6-2.98-2.51-.16-.16-.18-.29-.12-.5,.59-2.08,1.32-4.1,2.23-6.06,.91-1.96,1.95-3.84,3.17-5.63,.76-1.12,1.59-2.19,2.49-3.21,.47-.53,.96-1.06,1.47-1.55,1.25-1.19,2.6-2.26,4.13-3.09,.97-.52,1.98-.94,3.05-1.2,.92-.22,1.85-.32,2.8-.26,1.24,.08,2.37,.45,3.32,1.27,.66,.57,1.14,1.26,1.51,2.04,.45,.95,.69,1.96,.84,3,.11,.8,.16,1.6,.14,2.3Zm-5.33,2.15c.22,.02,.45-.05,.67-.15,.27-.12,.5-.28,.72-.48,.5-.45,.88-1,1.14-1.62,.26-.61,.39-1.25,.28-1.92-.11-.72-.56-1.15-1.28-1.13-.45,0-.82,.19-1.16,.45-.73,.57-1.23,1.31-1.53,2.18-.16,.45-.23,.91-.19,1.38,.07,.76,.61,1.29,1.35,1.29Z"/></svg>