<?xml version="1.0" encoding="UTF-8"?><svg id="Layer_1" xmlns="http://www.w3.org/2000/svg" viewBox="0 0 50 50"><defs><style>.cls-1{fill:#0a225d;}</style></defs><path class="cls-1" d="M49.75,35.65c0,1.25-.81,2.36-2.04,2.79-2.14,.74-4.29,1.48-6.43,2.22-7.52,2.59-15.05,5.18-22.57,7.77-1.08,.37-2.15,.75-3.23,1.11-1.77,.6-3.39-.21-4-1.97-2.23-6.5-4.47-13-6.7-19.5C3.34,23.87,1.9,19.67,.45,15.47c-.39-1.12-.24-2.13,.51-3.05,.32-.4,.74-.66,1.22-.82,1.8-.62,3.6-1.24,5.4-1.86,7.27-2.5,14.55-5,21.82-7.5,1.7-.58,3.41-1.13,5.08-1.76,1.71-.65,3.43,.26,3.98,1.96,.9,2.75,1.87,5.47,2.81,8.2,2.74,7.94,5.48,15.88,8.22,23.82,.13,.39,.25,.78,.24,1.2ZM12.44,21.18c-.19-.07-.23-.18-.3-.26-.75-.95-1.49-1.9-2.25-2.84-.41-.51-.97-.65-1.58-.51-.61,.14-.95,.57-1.07,1.18-.11,.56,.12,1.01,.45,1.43,.87,1.11,1.72,2.22,2.58,3.33,.28,.36,.28,.72,0,.95-.27,.22-.68,.14-.95-.21-.24-.3-.48-.61-.72-.91-.57-.71-1.44-.84-2.15-.31-.65,.49-.77,1.43-.27,2.14,.22,.32,.46,.62,.7,.93,.92,1.2,2.14,1.73,3.62,1.46,1.54-.28,2.54-1.23,2.9-2.79,.06-.24,.14-.25,.34-.14,.24,.13,.51,.2,.8,.15,.88-.15,1.38-.73,1.39-1.63,0-.21,.07-.35,.23-.48,.78-.62,1.55-1.25,2.32-1.88,.22-.18,.4-.23,.69-.13,1.05,.36,1.99-.35,1.96-1.46-.01-.43-.01-.44,.41-.43,2.07,.06,3.63-.87,4.71-2.58,.76-1.21,1.1-2.53,.64-3.96-.03-.09-.12-.2-.05-.28,.08-.1,.21-.02,.31,0,1.03,.24,2.07,.48,3.1,.72,.31,.07,.61,.09,.92-.02,.66-.23,1.02-.81,1-1.56-.02-.64-.45-1.16-1.11-1.33-.93-.23-1.87-.46-2.81-.67-.25-.06-.35-.18-.34-.43,.01-.87,0-1.75,0-2.62,0-.92-.61-1.55-1.5-1.55-.93,0-1.52,.59-1.54,1.54-.02,.85-.04,1.7-.06,2.55,0,.07,.03,.17-.06,.21-.09,.03-.13-.07-.17-.13-.23-.3-.45-.6-.69-.89-.37-.45-.85-.68-1.44-.57-1.18,.23-1.67,1.53-.93,2.49,.62,.81,1.27,1.59,1.89,2.4,.36,.47,.57,1.01,.51,1.61-.1,1.02-.88,1.83-1.87,1.96-1.1,.15-2.1-.39-2.5-1.38-.33-.82-.22-1.96,.73-2.59,.59-.39,.74-1.15,.44-1.78-.31-.64-.96-.94-1.66-.78-.75,.17-1.27,.69-1.69,1.27-1.22,1.66-1.21,3.45-.42,5.28,.07,.17,.16,.33,.24,.51-.17,.05-.26-.05-.37-.1-1.06-.53-2.11-1.07-3.17-1.6-.59-.3-1.17-.22-1.68,.18-.49,.38-.66,.9-.53,1.51,.19,.94,.39,1.88,.59,2.83,.15,.7,.29,1.4,.44,2.15Zm12.72,16.42c-.15,0-.31,0-.46,0-.21,.01-.31-.07-.35-.29-.44-1.96-2.67-2.77-4.28-1.56-.71,.53-1.4,1.09-2.1,1.63-.91,.7-1.02,1.56-.32,2.47,1.32,1.69,2.64,3.39,3.96,5.08,.59,.75,1.55,.85,2.29,.25,.75-.61,1.48-1.23,2.25-1.82,1.16-.89,1.69-2.01,1.4-3.48-.04-.18,.03-.23,.19-.15,.05,.02,.1,.04,.16,.06,3.19,1.14,6.56-.9,7.03-4.26,.09-.61,.11-1.23,.16-1.85,.02-.25,.15-.31,.38-.28,.88,.13,1.75,.25,2.63,.36,.38,.05,.77,.1,1.15-.04,.66-.24,1-.84,.92-1.59-.07-.66-.59-1.2-1.27-1.31-1.05-.16-2.1-.32-3.15-.46-.29-.04-.35-.15-.32-.44,.12-1.03,.23-2.07,.29-3.1,.05-.85-.56-1.5-1.38-1.58-.78-.07-1.46,.46-1.58,1.29-.14,.9-.23,1.8-.33,2.7-.07,.66-.06,.64-.71,.56-.96-.13-1.92-.34-2.9-.17-3.7,.62-5.41,4.64-3.76,7.67,.05,.09,.14,.18,.11,.3Zm11.36-24.85c0-.15,0-.31-.05-.46-.3-.98-1.44-1.38-2.28-.76-1.05,.78-2.08,1.58-3.11,2.38-.75,.58-.86,1.46-.28,2.22,.3,.39,.59,.78,.89,1.16,.12,.15,.11,.26-.05,.38-.37,.28-.74,.56-1.1,.86-.16,.13-.28,.13-.41-.05-.27-.36-.55-.72-.83-1.08-.67-.87-1.53-.99-2.39-.32-.99,.76-1.97,1.54-2.96,2.31-.7,.54-1.39,1.09-2.09,1.63-.49,.38-.79,.85-.69,1.49,.18,1.23,1.48,1.71,2.51,.95q.66-.49,1.16,.15c.89,1.13,1.78,2.26,2.69,3.38,.51,.63,1.12,.82,1.76,.56,.66-.27,1.04-.86,1-1.57-.02-.31-.15-.57-.34-.81-1-1.28-2-2.57-3.01-3.84-.16-.21-.16-.33,.06-.48,.18-.12,.36-.26,.53-.4,.14-.13,.24-.1,.35,.04,.26,.34,.53,.68,.8,1.02,.76,.97,1.51,1.94,2.27,2.9,.61,.77,1.64,.83,2.3,.15,.53-.54,.56-1.4,.07-2.04-.3-.39-.6-.77-.92-1.13-.19-.22-.16-.34,.06-.5,.36-.25,.72-.52,1.06-.8,.19-.16,.31-.14,.46,.05,.34,.44,.69,.87,1.04,1.29,.49,.59,1.46,.72,1.99,.25,.42-.37,.86-.69,1.3-1.04,.56-.44,1.13-.86,1.67-1.31,.95-.78,.79-2.16-.29-2.61-.57-.24-1.11-.15-1.6,.22-.48,.37-.95,.76-1.42,1.14-.15,.12-.27,.26-.46,.01-.18-.23-.13-.35,.08-.51,.26-.19,.5-.4,.75-.6,.61-.49,.71-1.17,.25-1.78-.38-.51-1.11-.58-1.69-.17-.31,.23-.61,.48-.91,.72-.07,.05-.13,.13-.23,.07-.26-.14-.3-.48-.07-.66,.5-.4,1.01-.79,1.51-1.19,.41-.32,.66-.71,.64-1.25ZM14.41,28.17c-.02,1,.27,1.84,.83,2.57,.88,1.15,1.77,2.29,2.67,3.43,.56,.71,1.44,.81,2.15,.26,.68-.53,.8-1.46,.26-2.15-.5-.65-1.01-1.29-1.51-1.94-.39-.51-.8-1-1.17-1.52-.44-.62-.09-1.4,.65-1.45,.43-.03,.72,.23,.96,.55,.84,1.09,1.67,2.17,2.51,3.26,.55,.71,1.45,.85,2.14,.34,.69-.51,.84-1.48,.3-2.18-.95-1.24-1.9-2.47-2.9-3.67-1.05-1.27-2.79-1.69-4.34-1.12-1.54,.57-2.56,2.05-2.56,3.62Zm3.44,7.21c.02-.34-.11-.66-.34-.95-1.37-1.78-2.74-3.56-4.12-5.33-.36-.46-.87-.66-1.45-.56-1.18,.22-1.66,1.46-.93,2.42,.96,1.26,1.93,2.51,2.9,3.76,.43,.56,.85,1.14,1.32,1.66,.48,.51,1.09,.59,1.74,.33,.53-.21,.86-.71,.87-1.33Zm24.52-4.44c0-.48-.36-.83-.83-.84-.49,0-.87,.37-.87,.85,0,.44,.42,.85,.85,.85,.48,0,.85-.38,.85-.86Z"/><path class="cls-1" d="M15.11,18.63c.36,.18,.73,.37,1.09,.54,.16,.08,.16,.16,.03,.27-.23,.19-.46,.38-.69,.57-.09,.07-.19,.12-.23-.04-.11-.43-.2-.87-.3-1.3l.1-.04Z"/><path class="cls-1" d="M31.82,34.86c0,1.15-.98,2.13-2.11,2.14-1.17,0-2.18-1.02-2.17-2.19,.02-1.18,.97-2.11,2.16-2.11,1.22,0,2.13,.93,2.12,2.16Z"/><path class="cls-1" d="M23.85,40.04c.25,.03,.44,.14,.53,.36,.1,.22,.04,.43-.13,.57-.33,.28-.68,.52-1.02,.78-.09,.07-.18,.08-.26-.02-.15-.19-.3-.38-.45-.57-.06-.08-.04-.15,.03-.2,.36-.29,.73-.57,1.09-.85,.06-.04,.14-.05,.2-.07Z"/><path class="cls-1" d="M22.3,38.7c-.01,.17-.09,.29-.21,.38-.1,.08-.21,.17-.31,.25-.42,.33-.41,.32-.75-.1-.18-.22-.16-.35,.08-.5,.19-.11,.36-.25,.54-.38,.14-.1,.29-.11,.43-.02,.15,.09,.21,.22,.22,.37Z"/><path class="cls-1" d="M41.54,31.69c-.43,0-.71-.29-.71-.73,0-.43,.29-.75,.7-.76,.38-.01,.75,.37,.76,.76,0,.38-.35,.73-.75,.73Z"/></svg>