<?xml version="1.0" encoding="UTF-8"?><svg id="Layer_1" xmlns="http://www.w3.org/2000/svg" viewBox="0 0 50 50"><defs><style>.cls-1{fill:#0a225d;}</style></defs><path class="cls-1" d="M25.09,20.95c.15-.5,.3-.98,.45-1.46,.68-2.21,1.5-4.36,2.54-6.42,.88-1.74,1.9-3.38,3.28-4.77,.86-.87,1.84-1.6,3.03-1.99,1.45-.48,2.83-.3,4.14,.45,1.21,.69,2.14,1.68,2.97,2.78,1.29,1.72,2.24,3.62,3.07,5.6,1.11,2.68,1.95,5.44,2.63,8.26,.51,2.11,.94,4.23,1.29,6.37,.35,2.11,.63,4.23,.85,6.36,.2,1.94,.37,3.89,.47,5.84,.06,1.16,.11,2.32,.15,3.47,.05,1.31,.02,2.61,.05,3.91,0,.25-.07,.34-.33,.34-1.87,0-3.74,0-5.61,0-.25,0-.34-.08-.32-.32,.01-.14,0-.29,0-.43,.02-1.71-.04-3.43-.07-5.14-.02-1.35-.08-2.71-.15-4.06-.1-1.85-.21-3.71-.36-5.56-.2-2.49-.46-4.97-.79-7.45-.4-3-.89-5.97-1.61-8.91-.51-2.11-1.12-4.19-2.11-6.13-.34-.66-.73-1.29-1.27-1.81-.89-.86-1.94-.86-2.84,0-.82,.78-1.35,1.75-1.8,2.77-1.15,2.58-1.8,5.31-2.36,8.07-.5,2.48-.87,4.97-1.17,7.48-.2,1.67-.36,3.34-.49,5.01-.12,1.61-.23,3.21-.31,4.82-.07,1.46-.11,2.93-.16,4.4-.04,1.28-.02,2.56-.04,3.84,0,.35-.02,.37-.36,.37-1.86,0-3.72,0-5.58,0-.34,0-.35-.02-.36-.37,0-.76,0-1.52,0-2.28-.03-1.46-.05-2.92-.11-4.37-.08-1.8-.18-3.61-.31-5.41-.2-2.72-.47-5.43-.84-8.14-.4-2.87-.89-5.73-1.61-8.54-.52-2.02-1.13-4.01-2.12-5.86-.35-.67-.78-1.28-1.33-1.8-.88-.83-1.93-.83-2.8,.01-.72,.7-1.2,1.57-1.61,2.47-.99,2.18-1.59,4.48-2.1,6.81-.54,2.42-.94,4.86-1.27,7.31-.23,1.72-.41,3.44-.59,5.16-.18,1.82-.31,3.65-.44,5.48-.08,1.11-.11,2.23-.17,3.35-.09,1.73-.12,3.46-.17,5.19-.03,1.25-.02,2.49-.04,3.74,0,.34,0,.34-.35,.34-1.85,0-3.7,0-5.56,0-.35,0-.35,0-.35-.34,0-1.1-.02-2.2,.02-3.3,.06-1.68,.12-3.36,.23-5.03,.12-1.87,.28-3.74,.49-5.6,.31-2.8,.72-5.58,1.27-8.34,.63-3.21,1.42-6.38,2.5-9.47,.81-2.33,1.77-4.58,3.07-6.69,.86-1.39,1.85-2.66,3.16-3.66,.64-.48,1.34-.85,2.12-1.05,1.27-.34,2.47-.12,3.62,.47,1.6,.82,2.76,2.12,3.77,3.57,1.4,2,2.41,4.2,3.27,6.47,.5,1.32,.93,2.66,1.32,4.01,.02,.07,.02,.15,.11,.23Z"/></svg>