<?xml version="1.0" encoding="UTF-8"?><svg id="Layer_1" xmlns="http://www.w3.org/2000/svg" viewBox="0 0 118 41"><defs><style>.cls-1{fill:#f2ede9;}.cls-2{fill:#3f6ac3;}.cls-3{fill:#0a225d;}</style></defs><path class="cls-1" d="M45.45,1.46c.44-.16,.89-.11,1.33-.11,11.43,.05,22.86,.1,34.29,.16,11.31,.05,22.62,.1,33.93,.16,.21,0,.42,0,.63,0,1.25,.04,1.75,.52,1.75,1.76,0,2.99-.01,5.99-.02,8.98-.03,7.24-.06,14.48-.08,21.73,0,1.82-.4,2.24-2.19,2.23-22.77-.1-45.54-.2-68.31-.3-.09,0-.18,0-.27,0-1.73-.02-2.12-.42-2.11-2.12,.02-4.34,.03-8.68,.05-13.02,.02-5.9,.05-11.79,.07-17.69,0-.76,.12-1.44,.93-1.76Z"/><path class="cls-1" d="M5.51,20.84c.85,1.36,1.32,5.94,2.16,7.3,1.99,2.79,2.47,5.8,1.42,8.2-.21,.47-.4,.95-.54,1.45-.19,.69-.67,1.76-1.88,2.35-2.08,1.01-4.13,.11-5-2-.48-1.16-.82-2.76-1-4-.53-3.67,3.27-9.49,2.77-13.17-.05-.4-.16-.73-.42-1.06-1.21-1.5-.57-3.07,1.39-3.36,2.87-.43,5.74-.83,8.61-1.25,4.68-.67,9.35-1.35,14.03-2.02,1.57-.23,2.28,.51,2.15,2.22-.15,2.03-.16,4.07-.03,6.1,.12,1.86-.55,2.58-2.21,2.33-6.83-1.04-13.66-2.1-20.49-3.14-.28-.04-.57-.2-.96,.05Z"/><path class="cls-1" d="M38.45,6.16c.14,.32,.14,.71,.14,1.1-.04,7.57-.07,15.14-.11,22.71-.01,2.08-.93,2.81-2.97,2.43-1.12-.21-2.24-.4-3.35-.62-1.33-.26-1.91-.96-1.91-2.3,.03-7.18,.06-14.36,.1-21.54,0-1.59,.53-2.21,2.1-2.5,1.26-.24,2.53-.47,3.8-.63,1.09-.14,1.84,.35,2.2,1.35Zm-6.19,10.78c-.31,.08-.39,.26-.38,.49,.02,.36,.3,.41,.58,.42,1.34,.01,2.68,0,4.01,.02,.4,0,.51-.18,.51-.55,0-.43-.19-.58-.6-.55-.86,.05-1.72,.08-2.58,.12-.53,.02-1.07,.04-1.54,.05Zm-.04,2.47c-.27,.05-.34,.23-.35,.46-.01,.25,.09,.42,.34,.43,1.43,.08,2.86,.15,4.3,.21,.36,.02,.45-.25,.45-.54,0-.24,0-.51-.35-.52-1.46-.02-2.93-.03-4.39-.04Zm.08-4.94c-.36,.09-.43,.27-.42,.5,0,.3,.17,.42,.46,.41,1.41-.06,2.81-.11,4.22-.17,.36-.01,.44-.25,.43-.55-.01-.23,.06-.54-.32-.52-1.49,.1-2.98,.22-4.37,.32Zm4.63,8.03c-.06-.27-.24-.38-.46-.39-1.37-.08-2.74-.15-4.1-.21-.32-.01-.49,.16-.51,.48-.02,.34,.2,.39,.45,.41,1.36,.12,2.73,.24,4.09,.37,.56,.05,.55-.31,.53-.66Zm-4.54-10.52c-.3,.05-.51,.17-.48,.53,.02,.26,.16,.4,.4,.38,1.46-.11,2.91-.23,4.37-.37,.44-.04,.32-.43,.31-.72,0-.36-.26-.33-.51-.3-1.36,.16-2.72,.32-4.08,.48Zm-.17-2.44c-.2,0-.3,.18-.3,.46,0,.25,.12,.43,.37,.4,1.47-.17,2.95-.35,4.42-.56,.42-.06,.3-.45,.29-.73-.01-.29-.21-.31-.45-.27-1.41,.23-2.81,.45-4.33,.7Zm-.1,14.82c-.27,.08-.29,.25-.28,.44,.02,.34,.25,.44,.54,.48,1.24,.17,2.48,.34,3.72,.49,.31,.04,.75,.27,.83-.33,.08-.61-.32-.68-.77-.72-1.22-.11-2.43-.22-3.65-.33-.15-.01-.3-.02-.4-.03Zm4.8,3.41c-.08-.33-.36-.37-.63-.4-1.27-.16-2.55-.33-3.82-.48-.24-.03-.56-.18-.63,.25-.06,.37,.14,.56,.48,.62,1.35,.23,2.71,.46,4.06,.68,.55,.09,.57-.28,.54-.67Zm-.05,2.57c-.1-.24-.31-.27-.52-.31-1.3-.22-2.59-.45-3.89-.66-.22-.04-.53-.16-.6,.17-.07,.32,.1,.61,.44,.68,1.32,.25,2.64,.5,3.97,.7,.37,.06,.63-.15,.59-.58Zm-4.21-23.36c-.33,.14-.76,.19-.67,.63,.09,.49,.52,.28,.81,.23,1.18-.17,2.36-.36,3.54-.56,.3-.05,.74-.04,.64-.54-.08-.39-.42-.38-.72-.33-1.21,.19-2.42,.39-3.59,.58Z"/><path class="cls-1" d="M42.13,36.24c-1.38,.51-2.77-.43-2.8-1.97-.04-2.18,0-4.37,0-6.55,.03-8.11,.06-16.22,.09-24.33,0-.39,0-.78,.06-1.16,.16-1.08,1.08-1.83,2.13-1.78,1.07,.05,1.98,.85,2,1.92,.05,2.21,.02,4.43,.02,6.64-.03,8.2-.06,16.4-.09,24.6,0,1.51-.41,2.26-1.42,2.63Z"/><g><path class="cls-3" d="M50.16,3.62h5.58l2.14,8.35,2.14-8.35h5.57v13.72h-3.48V6.89l-2.67,10.46h-3.14l-2.66-10.47v10.46h-3.48V3.62Z"/><path class="cls-3" d="M67.76,10.51c0-2.24,.63-3.98,1.88-5.23,1.25-1.25,2.99-1.87,5.21-1.87s4.04,.62,5.28,1.84c1.23,1.23,1.85,2.94,1.85,5.15,0,1.6-.27,2.92-.81,3.94s-1.32,1.82-2.34,2.39c-1.02,.57-2.29,.85-3.81,.85s-2.83-.25-3.84-.74c-1.01-.49-1.84-1.27-2.46-2.34-.63-1.07-.94-2.4-.94-4.01Zm4.24,.02c0,1.39,.26,2.38,.77,2.99,.51,.61,1.21,.91,2.1,.91s1.62-.3,2.12-.89c.5-.59,.75-1.66,.75-3.19,0-1.29-.26-2.23-.78-2.83s-1.23-.89-2.12-.9-1.54,.3-2.06,.91c-.52,.61-.78,1.61-.78,3Z"/><path class="cls-3" d="M84.31,17.37V3.65h7.08c1.31,0,2.31,.12,3,.34s1.25,.64,1.67,1.25c.42,.61,.64,1.35,.63,2.22,0,.76-.16,1.42-.49,1.97-.33,.55-.77,1-1.34,1.34-.36,.22-.86,.4-1.49,.54,.51,.17,.87,.34,1.1,.51,.16,.11,.38,.35,.68,.72,.3,.37,.49,.65,.59,.85l2.05,3.98h-4.79l-2.26-4.2c-.29-.54-.54-.9-.77-1.06-.31-.21-.65-.32-1.04-.32h-.37v5.57h-4.26Zm4.26-8.16h1.79c.19,0,.57-.06,1.12-.18,.28-.06,.51-.2,.69-.43,.18-.23,.27-.5,.27-.8,0-.44-.14-.78-.42-1.02-.28-.24-.81-.36-1.58-.36h-1.86v2.79Z"/><path class="cls-3" d="M99.16,3.66h11.36v2.94h-7.11v2.17h6.6v2.8h-6.6v2.7h7.32v3.11h-11.57V3.66Z"/></g><g><path class="cls-2" d="M51.1,28.61c1.35,.97,2.78,1.4,3.98,1.42,1.46,.02,2.51-.59,2.52-1.63,.03-2.39-7.82-.65-7.75-5.24,.05-3.52,3.47-4.39,6.69-4.34,1.27,.02,2.5,.18,3.48,.37l-.16,3.46c-.64-.29-2.09-.65-3.36-.67-1.14-.02-2.11,.26-2.12,1.09-.03,1.93,8.12-.71,8.03,5.66-.05,3.6-3.48,5.14-6.96,5.1-2.56-.03-5.12-.92-6.43-2.49l2.08-2.72Z"/><path class="cls-2" d="M72.08,33.83l-.84-3.48-3.66,.08-.61,3-4.34,.17,4.07-14.25,4.89-.33,4.9,14.67-4.42,.13Zm-2.82-10.48l-1.14,4.46,2.48,.03-1.34-4.49Z"/><path class="cls-2" d="M88.11,19.5c.19,1.33,.28,2.85,.26,4.4-.07,5.19-1.53,10.72-6.01,10.66-4.15-.06-6.03-5.14-5.95-11.03,.02-1.34,.21-3.1,.42-4.29l4.39,.53c-.32,1-.47,2.59-.49,3.73-.05,3.5,.57,5.86,2.04,5.88,1.67,.02,2.23-2.22,2.27-5.43,.02-1.57-.11-2.99-.3-4.19l3.38-.26Z"/><path class="cls-2" d="M100.15,33.64c-1.26,.42-2.47,.61-3.57,.6-4.36-.06-7.31-3.2-7.26-6.97,.05-3.48,2.58-7.28,7.64-7.21,.87,.01,1.83,.19,2.85,.61l-1.22,3.38c-.45-.23-.94-.33-1.4-.34-2.39-.03-3.49,1.41-3.51,2.91-.03,2.18,1.34,3.16,2.95,3.18,.72,0,1.5-.17,2.2-.52l1.31,4.37Z"/><path class="cls-2" d="M101.98,34l-.9-13.88,8.93-.94,.2,3.28-5.22,.54,.16,1.93,4.08-.25,.26,3.02-4,.29,.26,2.05,5.12-.44,.2,4.66-9.11-.25Z"/></g></svg>