<?xml version="1.0" encoding="UTF-8"?><svg id="Layer_1" xmlns="http://www.w3.org/2000/svg" viewBox="0 0 50 50"><defs><style>.cls-1{fill:#0a225d;}</style></defs><path class="cls-1" d="M40.32,15.87c.06-.43,.07-.84,.19-1.22,.26-.87,1.34-1.41,2.17-1.03,.49,.23,1.03,.51,1.22,1.08,.1,.32,.05,.7,.06,1.05,0,.1-.03,.19-.05,.29l.07,.04c.15-.16,.3-.33,.46-.49,.07-.07,.13-.14,.2-.2,.4-.34,.6-.31,.88,.14,.27,.44,.52,.89,.54,1.43,0,.17,.15,.34,.23,.51,.05,.11,.11,.23,.15,.35q.21,.59-.29,.93s-.06,.06-.11,.12c.26,.23,.53,.44,.77,.69,.48,.49,.94,.99,1.42,1.48,.09,.09,.24,.15,.36,.16,.32,.02,.64,0,.95-.01,.12,0,.23-.06,.44-.11,0,.6,.03,1.16-.01,1.71-.01,.2-.21,.38-.29,.58-.05,.14-.1,.31-.07,.44,.31,1.25,.18,2.46-.3,3.64-.35,.86-.88,1.62-1.49,2.32-.75,.86-1.65,1.55-2.58,2.21-.02,.02-.04,.05-.09,.11,.36,.1,.7,.18,1.03,.29,.41,.15,.84,.29,1.22,.51,.54,.31,.52,.77-.03,1.04-.47,.23-.96,.46-1.47,.56-1.51,.29-3.04,.57-4.56,.77-1.3,.17-2.61,.29-3.92,.33-1.47,.05-2.84,.54-4.28,.72-1.27,.15-2.54,.37-3.81,.45-1.8,.12-3.62,.19-5.42,.19-2.2,0-4.38-.21-6.56-.55-1.87-.29-3.72-.68-5.54-1.2-.1-.03-.25,.01-.35,.06-1.45,.75-2.98,1.01-4.59,.73-.86-.15-1.6-.56-2.22-1.19-.55-.56-1.22-1.03-1.56-1.77-.25-.55-.45-1.12-.62-1.7-.1-.35-.07-.73-.13-1.09-.02-.11-.1-.23-.18-.32-.54-.58-1-1.21-1.36-1.92-1.21-2.37-.9-4.59,.61-6.7,1.14-1.59,2.68-2.71,4.35-3.67,.53-.31,1.1-.53,1.62-.85,.34-.21,.64-.49,.94-.77,1.3-1.25,2.77-2.23,4.53-2.7,1.39-.37,2.77-.4,4,.55,.08,.06,.2,.1,.29,.09,.93-.1,1.86-.23,2.79-.33,.7-.08,1.4-.13,2.1-.17,.88-.05,1.76-.1,2.65-.1,.89,0,1.79,.05,2.68,.09,.75,.04,1.49,.06,2.23,.15,1.6,.2,3.21,.4,4.8,.67,2.01,.34,3.95,.91,5.86,1.6,.04,.01,.08,.02,.09,.02Zm-18.76,4.92c-.06-.12-.08-.15-.1-.19-.41-.98-1.38-1.32-2.31-1.14-.94,.18-1.68,.74-2.31,1.41-1.25,1.33-2.15,2.88-2.65,4.64-.32,1.14-.51,2.3-.07,3.47,.04,.1,0,.28-.08,.37-.28,.33-.57,.65-.88,.94-1.16,1.05-2.46,1.73-4.08,1.53-.75-.1-1.45-.33-1.97-.95-.64-.76-.84-1.66-.88-2.61-.05-1.19,.23-2.34,.62-3.46,.56-1.6,1.24-3.15,2.09-4.62,.98-1.72,2.2-3.23,3.91-4.29,.7-.44,1.42-.81,2.29-.78,.67,.02,1.05,.58,.77,1.19-.08,.18-.2,.35-.33,.5-.66,.73-1.33,1.46-2.01,2.17-.25,.26-.25,.49-.1,.77,.35,.66,.92,1.08,1.58,1.39,.25,.12,.47,.07,.68-.09,.79-.61,1.45-1.33,1.93-2.21,.73-1.34,.75-2.67-.09-3.94-.69-1.04-1.71-1.62-2.97-1.66-1.49-.05-2.82,.49-4.07,1.24-1.41,.85-2.57,1.99-3.61,3.25-1.12,1.35-2.07,2.81-2.8,4.4-.94,2.04-1.54,4.17-1.7,6.42-.09,1.32,.06,2.59,.77,3.73,.68,1.09,1.62,1.87,2.9,2.18,1.08,.27,2.15,.17,3.21-.13,1.88-.52,3.32-1.68,4.49-3.21,.33-.43,.62-.89,.95-1.36,.66,.5,1.38,.52,2.07,.12,.47-.28,.89-.66,1.32-1.01,.14-.11,.25-.26,.41-.43,.02,.09,.03,.13,.04,.17,.14,.57,.73,1.05,1.4,.92,.61-.13,1.14-.43,1.62-.81,.32-.25,.63-.51,.94-.76,0,.15-.08,.27-.12,.39-.03,.09-.08,.22-.04,.29,.03,.06,.18,.08,.27,.07,.69-.09,1.37-.2,2.06-.29,.24-.03,.4-.15,.5-.37,.75-1.66,1.51-3.33,2.27-4.99,.28-.62,.51-1.28,1.03-1.75,.28-.25,.58-.49,.99-.5,.24,0,.37,.11,.34,.34-.04,.29-.1,.58-.2,.85-.49,1.24-1.01,2.47-1.48,3.72-.12,.32-.19,.68-.18,1.02,.05,1.09,1.08,1.5,2,1.31,.69-.15,1.25-.55,1.74-1.03,.31-.3,.6-.63,.92-.97,.06,.16,.1,.28,.15,.39,.18,.41,.41,.77,.83,1,1.03,.56,2.02,.33,2.94-.21,1.29-.75,2.38-1.77,3.28-2.95,1.07-1.41,2.05-2.9,3.06-4.35,.17-.25,.33-.5,.52-.78,.05,.43,.1,.81,.14,1.18,.09,.81,.27,1.62,.27,2.43,0,1.95-1.66,2.73-3.22,1.92-.06-.03-.13-.05-.19-.08-.36,.43-.36,.5-.03,.93,.12,.16,.26,.31,.43,.41,1.03,.62,2.07,.6,3.12,.05,.76-.4,1.26-1.06,1.8-1.7,.67-.79,1.44-1.45,2.55-1.52,.08,0,.2-.04,.24-.1,.25-.41,.49-.82,.73-1.24l-.07-.09c-1.29,.03-2.14,.9-3.06,1.74,0-.11,0-.16,.02-.21,.15-.74,0-1.44-.3-2.12-.27-.6-.54-1.2-.83-1.8-.35-.73-.28-1.26,.65-1.78,.22-.12,.3-.27,.22-.48-.14-.34-.28-.68-.47-.99-.21-.34-.46-.36-.73-.06-.37,.42-.74,.84-1.02,1.31-.57,.94-1.06,1.93-1.63,2.88-1.1,1.85-2.33,3.6-3.97,5.02-.58,.5-1.16,1.01-1.97,1.12-.48,.06-.88-.16-.96-.63-.05-.3-.05-.6-.07-.9,.13-.05,.22-.08,.31-.12,.06-.02,.12-.04,.18-.06,1.44-.43,2.72-1.14,3.67-2.33,.67-.85,1.23-1.74,1.21-2.9-.03-1.4-1.36-2.14-2.44-1.99-.97,.13-1.77,.63-2.41,1.33-.54,.58-1.02,1.23-1.45,1.9-.79,1.24-1.42,2.55-1.55,4.05-.02,.24,.02,.52-.09,.7-.23,.36-.53,.67-.83,.97-.16,.16-.44,.32-.61,.12-.12-.14-.12-.47-.05-.66,.42-1.04,.89-2.07,1.32-3.11,.27-.66,.57-1.32,.73-2,.24-1.04-.57-1.91-1.63-1.84-.86,.06-1.56,.46-2.17,1.05-.07,.07-.15,.14-.23,.21l-.04-.05,.45-.94c-.18-.01-.29-.04-.38-.03-.76,.14-1.53,.28-2.28,.45-.13,.03-.26,.21-.33,.35-.29,.62-.54,1.25-.83,1.87-.59,1.31-1.22,2.61-1.78,3.93-.38,.9-1,1.53-1.87,1.94-.12,.06-.31,.04-.43-.03-.06-.03-.05-.24-.03-.36,0-.1,.05-.2,.1-.3,.67-1.43,1.34-2.86,2-4.29,.37-.79,.74-1.58,1.09-2.38,.15-.36,0-.54-.37-.49-.44,.06-.87,.15-1.3,.25-.61,.14-1.24,.27-1.38,1.11Zm-3.55,11.26c-.64,.15-1.32,.28-1.98,.47-.4,.12-.79,.3-1.15,.5-.35,.19-.36,.41-.07,.66,.14,.12,.3,.25,.47,.3,.84,.24,1.67,.49,2.52,.65,1.04,.2,2.09,.37,3.14,.48,1.34,.14,2.69,.23,4.04,.3,1.65,.09,3.3,.17,4.95,.19,1.63,.01,3.26-.05,4.89-.1,1.02-.03,2.04-.07,3.05-.14,1.45-.11,2.91-.23,4.36-.39,1.38-.16,2.75-.38,4.07-.81,.31-.1,.63-.25,.9-.44,.33-.23,.31-.47-.03-.69-.17-.12-.36-.22-.55-.3-1.18-.46-2.43-.68-3.68-.82-1.97-.23-3.95-.43-5.92-.57-1.44-.11-2.88-.13-4.32-.14-1.49-.01-2.99,.01-4.49,.05-1.21,.03-2.42,.06-3.62,.15-1.69,.12-3.37,.29-5.05,.44-.25,.02-.49,.08-.74,.13v.09l.87,.04v.75c-.24-.05-.49,.14-.64-.19-.05-.11-.28-.09-.29,.11-.02,.36-.01,.72,0,1.07,0,.05,.11,.14,.16,.14,.07,0,.14-.08,.18-.15,.03-.05,.03-.14,.04-.2h.56v.88c-.42,0-.82,.02-1.22,0-.24-.01-.45-.12-.45-.42,0-.64,0-1.29,0-2.01Zm14.27-13.6c.09,.08,.16,.18,.25,.22,.38,.15,.77,.16,1.17,0,.66-.25,.9-.79,1.09-1.41,.13-.42,.07-.9,.39-1.27,.04-.04,0-.24-.06-.27-.15-.07-.34-.15-.49-.12-.56,.12-1,.44-1.38,.87-.23,.27-.52,.48-.8,.7-.07,.06-.25,.07-.3,.02-.06-.05-.09-.22-.06-.31,.12-.33,.28-.65,.41-.98,.04-.1,0-.23,0-.34-.11,.02-.24,0-.33,.06-.39,.25-.77,.53-1.16,.79l-.07-.04c.11-.19,.22-.37,.33-.56,.04-.06,.1-.17,.08-.2-.05-.06-.18-.15-.22-.12-.15,.08-.37,.18-.41,.32-.16,.56-.53,.92-1,1.2-.13,.08-.27,.12-.51,.22,.05-.24,.06-.38,.11-.51,.13-.29,.29-.56,.42-.84,.03-.06,.03-.16,0-.22-.02-.04-.15-.06-.19-.03-.21,.17-.47,.33-.6,.55-.15,.26-.16,.6-.24,.9-.07,.25,.07,.42,.26,.46,.15,.03,.35-.04,.51-.12,.26-.13,.5-.29,.71-.41l.19,.35c.12-.07,.25-.11,.35-.2,.33-.31,.64-.64,.96-.97l.1,.07c-.06,.23-.13,.45-.17,.68-.1,.5,.23,.78,.7,.6,.18-.07,.35-.17,.54-.27,.17,.35,.42,.31,.69,.16,.24-.13,.48-.25,.76-.4-.07,.45-.15,.83-.43,1.14-.33,.35-.63,.41-1.04,.16-.2-.13-.35-.08-.58,.11Zm-11.43-1.85c.31,.38,.59,.73,.89,1.06,.24,.27,.48,.53,.76,.75,.08,.06,.27-.02,.42-.04-.02-.11-.02-.24-.08-.31-.31-.38-.64-.75-.96-1.13-.09-.11-.16-.23-.23-.33,.41-.2,.79-.37,1.15-.58,.27-.16,.5-.39,.45-.73-.04-.36-.34-.51-.64-.63-.05-.02-.1-.04-.15-.04-.71,.02-1.42,.03-2.13,.07-.11,0-.21,.16-.3,.26-.04,.04-.03,.13-.04,.2,.06,0,.11,.02,.17,.02,.19,0,.38-.03,.62-.04l-1.38,3.28c.55,.1,.61,.08,.8-.33,.23-.48,.43-.97,.66-1.48Zm6.44,.03s.05,.04,.08,.08c.08,.14,.16,.29,.24,.43-.14,.02-.29,.02-.43,.07-.09,.03-.19,.11-.22,.19-.02,.04,.06,.17,.12,.21,.06,.04,.16,.04,.24,.03,.78-.1,.94-.46,.49-1.1-.16-.23-.12-.4,.15-.48,.17-.05,.35-.05,.52-.1,.09-.02,.17-.09,.25-.14-.08-.07-.14-.18-.23-.21-.36-.12-.93,.18-1.21,.51-.3,.36-.65,.67-1.01,.97-.09,.08-.27,.05-.41,.07,.01-.13,0-.27,.05-.38,.13-.29,.3-.55,.43-.84,.04-.07,.03-.18,0-.26-.01-.04-.16-.08-.19-.05-.22,.19-.55,.36-.61,.59-.12,.47-.48,.66-.8,.9-.19,.14-.37,.02-.34-.22,.03-.29,.14-.56,.2-.85,.02-.1,0-.3-.05-.31-.28-.07-.56-.19-.85-.02-.56,.33-.98,.79-1.21,1.41-.09,.26,.05,.43,.33,.4,.14-.02,.28-.07,.41-.14,.21-.13,.41-.28,.62-.43,.12,.73,.51,.8,1.38,.16,.12,.49,.36,.62,.81,.37,.41-.23,.77-.53,1.2-.82Zm14.02,.58c.24-.17,.47-.33,.69-.5,.59-.47,.96-1.08,1.06-1.83,.08-.59-.24-1.07-.82-1.13-.26-.03-.56,.07-.8,.2-.45,.24-.69,.66-.74,1.17-.06,.51,.22,.77,.65,.96,.1,.05,.22,.23,.2,.33-.03,.26-.14,.5-.23,.81Zm-14.4-2.43c-.14-.13-.22-.26-.35-.32-.04-.02-.22,.13-.24,.22-.05,.23,.13,.51,.3,.46,.1-.03,.16-.19,.29-.36Zm3.31,.09l-.07-.04c.1-.21,.01-.36-.19-.36-.09,0-.25,.15-.27,.25-.04,.22,.08,.4,.31,.43,.06,0,.15-.18,.22-.28Z"/><path class="cls-1" d="M16.66,26.92c-.01-.71,.22-1.37,.53-1.99,.37-.74,.77-1.47,1.21-2.17,.27-.43,.58-.85,1.07-1.08,.48-.22,.95-.15,1.09,.25,.09,.26,.11,.61,.01,.86-.57,1.4-1.16,2.79-1.79,4.17-.24,.53-.67,.92-1.3,.98-.52,.05-.8-.23-.82-.76,0-.08,0-.17,0-.25Z"/><path class="cls-1" d="M35.22,23.3c.21-.52,.36-.99,.57-1.42,.41-.86,.89-1.69,1.62-2.34,.13-.12,.28-.24,.44-.3,.14-.05,.38-.09,.46-.02,.11,.11,.17,.33,.16,.5-.05,.67-.39,1.23-.79,1.75-.6,.76-1.38,1.32-2.22,1.78-.04,.02-.09,.02-.24,.06Z"/><path class="cls-1" d="M26.46,32.51c.18,.36-.3,.44-.22,.71,.05,.16,.1,.32,.16,.48,.06,.16,.13,.31,.19,.48,.43-.22,.32-.56,.31-.84-.01-.28-.1-.55-.16-.85h1.53v.6l-.32,.08v.59l.37,.06v.67h-2.49c0-.16,.02-.31,0-.46-.02-.1-.1-.2-.15-.29-.05,.09-.13,.18-.15,.28-.03,.14,0,.29,0,.46h-.78c.16-.65,.27-1.31-.03-1.98h.78l.05,.61c.26-.35,.37-.84,.91-.58Z"/><path class="cls-1" d="M34.88,34.47h-1.01c.05-.2,.12-.37,.13-.54,.02-.31,.03-.62,0-.93,0-.06-.21-.12-.33-.15-.22-.06-.51,.13-.65-.21-.01-.03-.16-.05-.2-.01-.05,.04-.09,.14-.08,.21,0,.06,.08,.14,.14,.16,.11,.03,.22,.02,.36,.03v.44l-.48,.04c-.02,.2-.11,.37,.11,.54,.08,.06,.04,.27,.05,.44h-1.1c.06-.39,.17-.78,.17-1.16,0-.39-.11-.78-.17-1.22h1.92l.04,.65c.26-.52,.69-.14,1.05-.25-.26,.67-.21,1.32,.05,2Z"/><path class="cls-1" d="M28.55,32.55c.83-.34,.96,.28,1.21,.72l.09-.03c0-.13,.01-.27,0-.4-.04-.39-.04-.39,.35-.38,.09,0,.19,0,.32,.02-.03,.34-.08,.67-.07,.99,0,.32,.06,.64,.09,.95-.74,.35-.87-.31-1.16-.71l-.08,.04-.05,.72h-.68c.19-.65,.33-1.3-.02-1.91Z"/><path class="cls-1" d="M34.98,34.47c.18-.67,.32-1.32,.01-1.92,.75-.34,.92,.24,1.18,.69l.09-.06,.05-.71c.16,0,.31,0,.47,0,.2,.01,.29,.23,.17,.38-.28,.35-.12,.73-.11,1.1,0,.16,.1,.31,.15,.45-.73,.34-.92-.24-1.18-.68l-.08,.06-.05,.68h-.69Z"/><path class="cls-1" d="M42.57,34.47c-.17,0-.25,.01-.33,.01-.45,0-.45,0-.46-.45,0-.05,0-.11,0-.16-.02-.07-.07-.13-.1-.2-.05,.07-.1,.13-.14,.2,0,0,0,.02,0,.03-.01,.18,.03,.49-.05,.52-.19,.09-.44,.05-.76,.07,.06-.21,.13-.37,.13-.52,0-.37-.03-.75-.05-1.12,0-.11-.06-.22-.03-.32,.01-.04,.16-.07,.24-.08,.27,0,.55,0,.82,0,.51,0,.75,.29,.53,.75-.14,.3,.04,.48,.08,.72,.03,.17,.08,.33,.13,.54Z"/><path class="cls-1" d="M20.98,32.49h.68v1.98h-.68c0-.17,.02-.34,0-.5-.02-.1-.1-.2-.15-.3-.05,.09-.14,.18-.15,.28-.03,.16,0,.33,0,.52h-.66v-1.97h.66c0,.19-.01,.37,0,.56,0,.06,.11,.12,.16,.18,.05-.06,.13-.11,.14-.17,.02-.18,0-.36,0-.57Z"/><path class="cls-1" d="M40.03,33.75l.41,.05v.66h-1.59c.11-.65,.27-1.31-.05-1.98h1.59c0,.16,0,.31,0,.45,0,.05-.01,.14-.03,.14-.43,.07-.24,.41-.33,.67Z"/><path class="cls-1" d="M38.61,33.16c-.23-.1-.4-.18-.58-.23-.07-.02-.2,.04-.24,.11-.04,.07,0,.18,0,.23h.82v1.21c-.39,0-.77,.03-1.14-.02-.13-.02-.33-.22-.34-.35-.03-.42,.01-.85,.02-1.28,0-.26,.12-.38,.39-.38,.35,0,.69,0,1.07,0v.69Z"/><path class="cls-1" d="M44.16,32.47v.67c-.21-.07-.37-.13-.54-.19-.06-.02-.19-.04-.19-.03-.04,.08-.05,.18-.08,.31,.2,0,.36,0,.51,0,.26,0,.39,.14,.4,.39,0,.17,.04,.36-.02,.5-.07,.15-.23,.33-.37,.35-.34,.05-.69,.02-1.06,.02,0-.28-.14-.55,.07-.69-.05-.35-.11-.65-.14-.94-.02-.24,.12-.38,.36-.38,.34,0,.67,0,1.05,0Z"/><path class="cls-1" d="M24.5,32.47v.63c-.2,0-.42,.14-.54-.15-.01-.03-.11-.06-.16-.05-.05,.01-.1,.08-.1,.13,0,.28,0,.57,0,.85,0,.04,.07,.1,.12,.11,.05,0,.15-.03,.16-.06,.09-.38,.36-.15,.57-.2v.75c-.36,0-.72,.02-1.07,0-.23-.01-.39-.17-.39-.41-.01-.39-.02-.78,0-1.16,.02-.28,.14-.47,.48-.44,.3,.02,.6,0,.94,0Z"/><path class="cls-1" d="M21.96,32.49h.96c-.31,.67-.23,1.31,0,1.98h-.97c.05-.33,.14-.65,.14-.98,0-.33-.08-.66-.12-1Z"/><path class="cls-1" d="M34.89,16.09c-.4,.34-.76,.64-1.13,.94-.05,.04-.14,.06-.19,.04-.04-.02-.07-.12-.06-.18,.05-.49,.79-1,1.27-.88,.03,0,.05,.03,.12,.08Z"/><path class="cls-1" d="M20.96,16.31c.17-.41,.27-.78,.46-1.1,.19-.3,.54-.1,.81-.12,.13,0,.3,.11,.41,.21,.04,.04,0,.24-.07,.3-.44,.38-.94,.64-1.61,.71Z"/><path class="cls-1" d="M23.16,17.07c-.05-.39,.4-1.06,.72-1.11,.06,0,.15,.02,.19,.06,.03,.04,.04,.15,.02,.2-.21,.36-.48,.67-.92,.85Z"/></svg>