<?xml version="1.0" encoding="UTF-8"?><svg id="Layer_1" xmlns="http://www.w3.org/2000/svg" viewBox="0 0 50 50"><defs><style>.cls-1{fill:#0a225d;}</style></defs><path class="cls-1" d="M5.61,14.46c.38-.01,.72,.12,1.07,.22,4.97,1.42,9.94,2.85,14.91,4.27,.22,.06,.42,.06,.64,0,7.93-2.28,15.86-4.53,23.78-6.84,1.97-.57,3.74,.91,3.69,2.73-.01,.46-.15,.89-.37,1.28-1.66,2.88-3.32,5.77-4.99,8.65-.4,.7-.47,1.42-.22,2.17,.79,2.45,1.6,4.9,2.37,7.35,.58,1.84-.57,3.53-2.5,3.7-.38,.03-.75-.07-1.11-.17-6.49-1.86-12.98-3.72-19.47-5.58-.32-.09-.62-.1-.95,0-5.8,1.67-11.61,3.33-17.42,4.99-.6,.17-1.2,.37-1.82,.48-1.03,.18-1.85-.23-2.44-1.07-.6-.85-.64-1.77-.12-2.67,1.42-2.49,2.85-4.98,4.3-7.45,.45-.78,.56-1.54,.27-2.4-.7-2.09-1.37-4.2-2.05-6.3-.5-1.55,.42-3.07,2.02-3.34,.13-.02,.27-.02,.41-.03Zm0,1.15c-.6,0-1.01,.28-1.28,.79-.25,.46-.12,.91,.03,1.37,.66,2.01,1.3,4.02,1.97,6.03,.38,1.13,.28,2.18-.32,3.2-.66,1.14-1.32,2.28-1.98,3.43-.78,1.35-1.56,2.7-2.34,4.05-.3,.53-.31,1.06,.05,1.57,.36,.49,.85,.67,1.44,.54,.5-.11,.99-.26,1.48-.41,5.92-1.7,11.83-3.39,17.75-5.1,.36-.1,.68-.11,1.04,0,4.73,1.36,9.46,2.72,14.18,4.07,1.89,.54,3.78,1.09,5.67,1.63,.68,.19,1.29,.09,1.78-.45,.49-.54,.5-1.17,.28-1.82-.79-2.42-1.57-4.84-2.35-7.26-.32-.99-.25-1.97,.27-2.88,.99-1.73,1.98-3.45,2.98-5.17,.69-1.2,1.38-2.39,2.06-3.59,.19-.33,.28-.68,.21-1.06-.19-1.06-1.1-1.62-2.16-1.33-1.33,.37-2.66,.76-3.98,1.14-3.05,.87-6.1,1.75-9.15,2.62-3.67,1.05-7.34,2.1-11.02,3.16-.22,.06-.43,.06-.65,0-4.93-1.42-9.86-2.83-14.79-4.24-.4-.11-.79-.28-1.2-.29Z"/><path class="cls-1" d="M29.29,26.6c.14-.85,.28-1.66,.41-2.48,.12-.74,.25-1.48,.37-2.23,.03-.21,.13-.28,.33-.28,.44,0,.88,0,1.32,0,.38,0,.39,.01,.33,.4-.26,1.56-.52,3.12-.78,4.67-.11,.67-.21,1.34-.35,2.01-.15,.73-.5,1.09-1.09,1.17-.74,.1-1.32-.19-1.64-.84-.64-1.3-1.26-2.6-1.89-3.9-.05-.1-.1-.2-.18-.36-.13,.41-.16,.79-.22,1.15-.2,1.15-.39,2.31-.57,3.47-.03,.21-.12,.31-.35,.3-.46-.01-.92,0-1.38,0-.22,0-.32-.05-.28-.31,.42-2.48,.83-4.97,1.24-7.46,.04-.23,.14-.32,.38-.31,.42,.01,.84,.01,1.26,0,.44-.01,.72,.19,.91,.58,.64,1.36,1.3,2.72,1.96,4.07,.05,.1,.07,.22,.23,.33Z"/><path class="cls-1" d="M23.28,24.97c-.01,2.7-2.53,5.08-5.24,4.89-2.33-.17-3.37-2.16-3.19-3.9,.22-2.18,2.02-4.02,4.04-4.44,1.92-.4,3.67,.55,4.23,2.3,.06,.18,.1,.36,.12,.55,.03,.2,.02,.4,.04,.59Zm-4.55,3.13c.19,.02,.45-.05,.69-.15,1.23-.49,2.04-2.12,1.71-3.4-.3-1.16-1.37-1.67-2.48-1.18-1.21,.54-1.97,2.08-1.65,3.37,.21,.84,.83,1.35,1.73,1.35Z"/><path class="cls-1" d="M9.46,29.69c-.83,0-1.65,0-2.48,0-.33,0-.34-.03-.18-.31,.23-.41,.48-.81,.7-1.23,.1-.19,.24-.26,.45-.26,1.21,0,2.43,0,3.64,0,.15,0,.29,0,.43-.05,.2-.09,.32-.24,.34-.46,.02-.22-.09-.37-.28-.49-.8-.5-1.59-1.01-2.39-1.51-.84-.53-1.17-1.26-.95-2.15,.22-.89,1.04-1.6,1.94-1.61,1.39-.02,2.78,0,4.18,0,.22,0,.29,.06,.17,.27-.24,.4-.48,.81-.71,1.22-.1,.18-.23,.24-.43,.23-.88,0-1.76,0-2.64,0-.08,0-.17,0-.25,0-.12,0-.24,.02-.28,.15-.04,.13,.08,.18,.17,.23,.52,.33,1.05,.65,1.57,.98,.24,.15,.48,.3,.72,.44,1.53,.87,1.48,2.83,.28,3.89-.49,.43-1.06,.66-1.72,.65-.76,0-1.53,0-2.29,0Z"/><path class="cls-1" d="M38.2,29.88c-.89-.02-1.98-.41-2.65-1.57-.5-.87-.54-1.81-.36-2.77,.47-2.5,2.57-4.18,5.11-4.1,.58,.02,1.14,.14,1.65,.44,.22,.13,.3,.26,.14,.5-.23,.36-.44,.74-.65,1.11-.07,.11-.11,.21-.28,.1-.93-.58-2.04-.51-2.9,.16-.93,.72-1.35,2.04-1.02,3.13,.21,.68,.68,1.08,1.36,1.19,.75,.12,1.46-.02,2.05-.55,.17-.16,.23-.1,.29,.08,.1,.34,.21,.68,.33,1.02,.07,.2,0,.33-.16,.45-.71,.53-1.58,.81-2.94,.81Z"/><path class="cls-1" d="M32.77,29.69c-.23,0-.46-.01-.69,0-.27,.02-.32-.09-.28-.33,.22-1.28,.43-2.56,.64-3.84,.2-1.2,.41-2.39,.59-3.59,.04-.23,.13-.32,.37-.32,.45,.01,.9,0,1.35,0,.36,0,.38,.02,.32,.38-.21,1.29-.42,2.58-.64,3.87-.19,1.16-.39,2.31-.57,3.47-.04,.27-.15,.38-.43,.36-.22-.02-.44,0-.66,0Z"/></svg>