<?xml version="1.0" encoding="UTF-8"?><svg id="Layer_1" xmlns="http://www.w3.org/2000/svg" viewBox="0 0 50 50"><defs><style>.cls-1{fill:#0a225d;}</style></defs><path class="cls-1" d="M46.24,32.01l1.82-1.73,.2,.1-1.06,2.8,2.5-1.29c.76,1.21,.08,2.66-2.24,4.28l1.46-.13c-1.18,1.46-2.68,1.87-4.29,1.77-.89-.06-1.3,.28-1.78,.93-8.72,12.12-26.74,12.11-35.46-.01-.48-.66-.91-.97-1.78-.92-1.64,.1-3.13-.4-4.38-1.84l1.45,.22c-.66-.68-1.4-1.23-1.86-1.96-.46-.72-.72-1.62-.24-2.43l2.32,1.26,.12-.25-.86-2.32,.27-.2,1.17,1.62,.34-.26c-.16-.99-.39-1.98-.48-2.99-.8-9.25,2.77-16.35,10.56-21.36,.27-.18,.53-.4,.74-.65,3.32-3.9,7.54-5.17,12.47-4.21,.77,.15,1.45,.74,2.44,1.27,2.29-.5,4.21,.57,5.65,2.76,.23,.35,.59,.66,.95,.88,8.44,5.18,12.26,14.38,9.97,24.1-.02,.1,0,.21,0,.53Zm-37.82,5.34c4.28,5.84,10,8.97,17.26,8.78,6.82-.17,12.19-3.28,16.18-8.86l-2.24-1.6c1.01-.58,1.78-1.3,1.55-2.58,.47,0,.88-.02,1.29,0,1.2,.06,1.82-.44,2.12-1.68,.89-3.72,.95-7.4-.15-11.07-1.27-4.25-3.7-7.67-7.37-10.3,3.27,6.45,5.07,12.88,.23,19.39,.94,.51,2,.95,1.61,2.42-1.08,.28-1.62,1.08-1.64,2.18-.02,1.31-.72,2.01-1.94,1.53-1.03-.41-1.91-1.19-3.08-1.95l-.66,3.66h-.2l-.38-2.08c-3.94,4.15-7.88,4.09-11.79,.06-.38,2.37-.27,3.27,.42,3.91q1.17-1.02,1.86,.39c.14,.28,.34,.54,.54,.87l.93-.7c.88,.62,1.69,1.61,2.45,1.58,.8-.03,1.56-1.05,2.38-1.68l1.1,.92,1.35-2.21,1.11,.8,1.37-2.83,1.57,5.02-.12,.15-1.78-2.43q-1.16,1.37-1.98,.85c-1.16,2.04-1.28,2.09-2.68,1.06l-1.09,1c.98,1.25,1.06,2.09,.28,2.86-.72,.71-2.29,.79-3.09,.14-.84-.68-.77-1.42,.28-3.02l-1.22-.95c-1.17,.84-1.35,.75-2.48-1.21-1.56,1.55-1.75-.49-2.56-1.16-.3,1.23-.73,2.16-1.93,2.47,1.18-1.32,1.29-2.92,1.2-4.67l1.1,.43-.16-2.62c-1.41,.53-2.61,1.03-3.85,1.42-.3,.09-.95-.09-1.03-.3-.46-1.21-1-2.34-1.63-3.48-.61-1.12,.56-1.8,1.47-2.38-.42-.59-.79-1.13-1.19-1.67-2.05-2.76-2.42-5.78-1.54-9.06,.72-2.69,1.36-5.41,2.03-8.11,0,0-.05-.01-.08,0-.12,.08-.24,.17-.35,.27-5.67,5.19-7.93,11.58-6.48,19.14,.61,3.19,.14,2.87,3.32,3.07,.07,0,.13,.06,0,0l1.26,2.93-1.6,1.29Zm6.9-15.54c-.64,.27-1.07,.33-1.29,.58-.86,.92-.37,3.45,.7,4.09,.29,.17,.62,.52,.66,.83,.59,4.41,3.48,7.05,7.01,9.19,1.68,1.02,3.45,1.17,5.17,.15,3.53-2.1,6.32-4.78,6.85-9.15,.04-.36,.24-.84,.52-1.02,1.41-.88,1.52-2.21,1.28-3.6-.08-.45-.61-.81-.93-1.22l-.14,.11-4.09-7.02c-2.85,4.1-5.05,5.75-7.29,5.43,1.49-1.61,2.74-3.32,3.04-5.28l-6.24,4.17,1.58,.94c-.84,.11-1.57-.05-2.29,0-.71,.06-1.41,.34-2.14,.53l-.08-.68c-1.55,.46-1.93,.82-2.33,1.94Zm11.18,21.97l.02-.46c-.4-.28-.81-.77-1.2-.76-.31,0-.83,.62-.84,.98-.01,.3,.55,.84,.9,.88,.34,.04,.75-.41,1.12-.65Z"/><path class="cls-1" d="M39.35,35.42l-1.53,1.79-.2-.18,.12-1.98,1.61,.38Z"/><path class="cls-1" d="M10.88,35.61l1.35-.72,.32,1.92-.15,.2-1.52-1.41Z"/><path class="cls-1" d="M41.24,30.91c-.31,.47-.61,.93-.94,1.38-.01,.02-.33-.2-.51-.3l.98-1.39,.47,.32Z"/><path class="cls-1" d="M30.53,30.29c-.98,1.03-1.85,1.99-2.77,2.9-1.46,1.46-4.51,.97-5.64-1.01,2.1,.7,4.15,1.56,6-.49-2.61-.62-5.39,.7-7.69-1.06,3.4,.3,6.78,.18,10.11-.35Z"/><path class="cls-1" d="M18.54,24.36c-.92-.19-1.06-.47-.49-1.47,.55-.96,1.39-1.26,2.44-1.17,.84,.07,1.37,.43,1.54,1.32,.05,.26,.38,.46,.6,.7q-.45,.64-1.48-.55c-.52,.26-.96,.54-1.45,.71-.16,.06-.41-.12-.62-.2,.18-.16,.36-.32,.54-.47,.1-.08,.22-.12,.34-.18l-.15-.35c-.3,.12-.72,.16-.87,.38-.23,.34-.27,.81-.4,1.26Z"/><path class="cls-1" d="M31.29,24.4l.17-1.27-.24-.17c-.29,1.43-1.24,.6-1.87,.86l-.15-.33,1.01-.57c-.69-.4-.82-.35-1.58,.72-.54,.75-.58,.76-.99,.29,.36-.38,.74-.69,1.01-1.09,.85-1.26,2.43-1.56,3.39-.52,.31,.34,.51,1,.41,1.44-.06,.29-.74,.44-1.16,.66Z"/><path class="cls-1" d="M32.38,20.2h-4.25c.52-.82,1.41-1.24,2.55-1.11,1.03,.12,1.44,.41,1.71,1.11Z"/><path class="cls-1" d="M23.25,28.32c.35-.47,.69-.88,1.46-.44,.32,.18,.82,.03,1.25,.01,.34-.02,.68-.06,1.21-.12-1.27,1.83-2.59,1.18-3.91,.54Z"/></svg>