<?xml version="1.0" encoding="UTF-8"?><svg id="Layer_1" xmlns="http://www.w3.org/2000/svg" viewBox="0 0 50 50"><defs><style>.cls-1{fill:#0a225d;}</style></defs><path class="cls-1" d="M32.27,28.33c.34-.83,.63-1.55,.92-2.28,1.36-3.4,2.73-6.81,3.93-10.28,.41-1.19,.74-2.41,1.24-3.57,.55-1.28,1.52-1.93,2.9-2,2.7-.14,5.39-.03,8.09-.06,.26,0,.4,.09,.4,.37,0,.88,0,1.76,0,2.65,0,.38-.23,.39-.5,.39-2.28,0-4.56,0-6.84,.01-.76,0-1.51,.08-2.24,.32-.85,.28-1.46,.83-1.71,1.68-1.53,5.05-3.71,9.86-5.71,14.73-.08,.2-.1,.55-.31,.55-.2,0-.22-.35-.3-.56-2.34-5.89-4.67-11.79-7.01-17.68-.05-.12-.1-.23-.16-.37-.2,.13-.21,.33-.28,.49-1.61,4.09-3.21,8.19-4.81,12.29-.72,1.84-1.44,3.68-2.17,5.53-.05,.12-.04,.32-.21,.31-.12,0-.14-.19-.19-.31-1.83-4.47-3.56-8.97-5.24-13.5-.23-.61-.5-1.21-.82-1.78-.57-1.01-1.45-1.5-2.57-1.63-.67-.08-1.33-.08-2-.08-1.95,0-3.91,0-5.86,0-.5,0-.53-.03-.53-.54,0-.83,0-1.66,0-2.5,0-.32,.11-.46,.44-.44,1.96,.12,3.93,.05,5.9,.07,.74,0,1.48,.05,2.22,.13,1.1,.12,1.86,.72,2.34,1.69,.63,1.27,1.11,2.6,1.62,3.91,1.58,4.04,3.14,8.08,4.71,12.12,.04,.1,.09,.2,.16,.33,.15-.15,.19-.33,.25-.49,2.27-5.95,4.53-11.89,6.8-17.84,.05-.14,.06-.37,.21-.37,.18,0,.19,.24,.24,.38,2.31,5.95,4.61,11.89,6.91,17.84,.05,.13,.11,.25,.21,.49Z"/><path class="cls-1" d="M17.24,33.03c.56-1.34,1.08-2.58,1.6-3.82,1.99-4.77,3.98-9.53,5.98-14.3,.04-.11,.05-.3,.2-.28,.13,.01,.14,.2,.18,.31,1.9,4.74,3.8,9.47,5.71,14.21,.48,1.19,.96,2.38,1.44,3.58,.04,.1,.06,.22,.19,.32,.19-.45,.38-.88,.56-1.31,1.93-4.7,3.99-9.34,5.76-14.11,.1-.26,.22-.51,.33-.76,.6-1.29,1.66-1.93,3.04-2.03,2.38-.17,4.76-.04,7.14-.08,.26,0,.36,.12,.36,.37,0,.97,0,1.94,0,2.91,0,.36-.22,.36-.48,.36-2.31,0-4.61,0-6.92,0-1.03,0-1.94,.32-2.61,1.14-.42,.51-.75,1.07-1.03,1.67-.67,1.47-1.16,3.01-1.75,4.51-1.27,3.23-2.6,6.42-3.97,9.61-.05,.11-.06,.29-.19,.3-.17,0-.18-.19-.23-.31-1.24-2.98-2.47-5.96-3.71-8.94-1.25-3.03-2.51-6.05-3.77-9.08-.04-.09-.09-.18-.13-.27-.19,.04-.18,.21-.23,.32-1.27,3.13-2.54,6.26-3.81,9.39-1.15,2.84-2.3,5.68-3.46,8.51-.06,.14-.07,.38-.25,.37-.15,0-.16-.23-.21-.37-1.76-4.33-3.52-8.66-5.28-13-.33-.81-.68-1.6-1.17-2.33-.62-.92-1.49-1.4-2.57-1.54-.6-.08-1.21-.07-1.81-.07-1.8,0-3.61,0-5.41,0-.47,0-.49-.02-.49-.49,0-.81,.01-1.61,0-2.42,0-.35,.12-.46,.47-.45,.68,.02,1.36,.01,2.04,0,1.32-.02,2.65,0,3.97-.07,1.91-.09,3.21,.79,4.12,2.4,.8,1.42,1.37,2.95,1.98,4.45,1.44,3.56,2.83,7.15,4.19,10.74,.06,.15,.12,.3,.22,.54Z"/><path class="cls-1" d="M32.03,26.12c-2.35-6.34-4.71-12.66-7.06-18.99h-.1l-6.96,18.96c-.19,0-.18-.13-.21-.21-1.66-4.59-3.41-9.14-4.96-13.76-.16-.48-.34-.95-.54-1.41-.52-1.19-1.45-1.8-2.7-1.97-.72-.1-1.45-.16-2.18-.16-2.18,0-4.36,0-6.54,0-.37,0-.52-.1-.51-.49,.02-.77,.02-1.54,0-2.31-.01-.39,.13-.5,.51-.49,.91,.02,1.82,0,2.72,0,1.7,.03,3.4-.06,5.1-.08,.38,0,.76,.03,1.13,.09,.95,.15,1.66,.64,2.09,1.5,.55,1.08,.91,2.24,1.32,3.38,1.59,4.37,3.17,8.74,4.75,13.12,.02,.07,.03,.15,.12,.19,.14-.07,.14-.22,.19-.35,2.2-6.02,4.41-12.05,6.61-18.07,.04-.11,.05-.3,.18-.31,.17,0,.16,.19,.21,.31,2.16,6.04,4.32,12.08,6.47,18.12,.04,.1,.04,.22,.16,.3,.14-.11,.16-.28,.21-.43,1.9-5.1,3.82-10.2,5.62-15.34,.22-.63,.48-1.25,.99-1.72,.4-.37,.9-.56,1.43-.64,.56-.09,1.12-.16,1.69-.16,2.5,0,4.99,0,7.49,0,.46,0,.48,.02,.48,.5,0,.79-.01,1.59,0,2.38,0,.36-.11,.48-.48,.48-2.23-.01-4.46,0-6.69-.01-.54,0-1.08,.04-1.62,.11-1.69,.24-2.63,1.37-3.29,2.82-.73,1.61-1.22,3.31-1.83,4.96-1.16,3.13-2.36,6.25-3.57,9.36-.04,.1-.05,.23-.23,.31Z"/><path class="cls-1" d="M16.89,37.71c.28-.62,.53-1.18,.77-1.74,2.36-5.39,4.72-10.78,7.08-16.17,0-.01,0-.02,.02-.03,.07-.11,.08-.32,.22-.33,.18,0,.19,.21,.24,.34,2.48,5.83,4.96,11.67,7.44,17.5,.05,.11,.06,.25,.24,.34,.25-.55,.49-1.1,.73-1.64,1.76-4.02,3.52-8.04,5.27-12.06,.35-.8,.66-1.61,1.04-2.39,.59-1.2,1.57-1.78,2.88-1.79,2.17-.02,4.34,0,6.5-.02,.29,0,.41,.1,.4,.4,0,.91-.01,1.82,0,2.72,0,.32-.14,.4-.44,.4-1.89,0-3.78-.01-5.67,0-.45,0-.91,.04-1.36,.1-1.32,.16-2.25,.89-2.85,2.06-.51,.99-.84,2.05-1.25,3.08-1.58,3.88-3.26,7.71-4.93,11.54-.05,.12-.06,.32-.23,.3-.13-.01-.14-.19-.19-.3-2.57-5.95-5.14-11.89-7.71-17.84-.04-.1-.1-.2-.15-.3-.16,0-.16,.13-.19,.22-2.58,5.93-5.15,11.86-7.73,17.79-.02,.05-.04,.09-.06,.14-.05,.08-.06,.22-.18,.22-.11,0-.13-.14-.17-.23-.58-1.35-1.17-2.71-1.75-4.06-1.36-3.16-2.72-6.32-4.08-9.48-.29-.67-.63-1.32-1.06-1.92-.78-1.07-1.89-1.38-3.12-1.39-1.94-.02-3.88,0-5.82,0-.52,0-.53,0-.53-.53,0-.86,0-1.71,0-2.57,0-.31,.11-.42,.42-.42,2.02,.01,4.03,0,6.05,.02,1.4,.01,2.47,.6,3.17,1.84,.89,1.56,1.55,3.23,2.25,4.87,1.56,3.65,3.08,7.32,4.58,10.99,.04,.09,.08,.18,.16,.34Z"/><path class="cls-1" d="M24.81,26.66c-.48,1.06-.93,2.06-1.37,3.06-1.73,3.87-3.45,7.73-5.17,11.6-.54,1.22-1.09,2.44-1.64,3.66-.04,.09-.04,.26-.18,.25-.11,0-.12-.15-.16-.23-1.2-2.61-2.4-5.22-3.6-7.83-1.14-2.49-2.27-4.98-3.25-7.53-.02-.06-.06-.11-.08-.17-.41-1.11-1.23-1.54-2.38-1.53-2.03,.03-4.06,0-6.09,0q-.62,0-.62-.63c0-.76,.01-1.51,0-2.27,0-.34,.1-.47,.45-.47,1.9,.01,3.81,.02,5.71,0,1.07-.01,1.86,.45,2.45,1.31,.63,.91,1.05,1.92,1.51,2.92,1.73,3.82,3.45,7.65,5.18,11.47,.34,.74,.68,1.49,1.01,2.22,.16,0,.17-.13,.21-.22,2.63-5.88,5.26-11.75,7.89-17.63,.02-.03,.03-.07,.05-.1,.06-.09,.07-.26,.19-.26,.16,0,.16,.17,.21,.28,2.62,5.88,5.24,11.76,7.86,17.65,.03,.07,.06,.13,.1,.2,.16,0,.17-.15,.22-.24,2.12-4.44,4.3-8.84,6.33-13.32,.35-.78,.66-1.58,.99-2.37,.51-1.19,1.48-1.71,2.71-1.82,2.02-.18,4.06-.05,6.08-.09,.24,0,.34,.11,.34,.34,0,.92,0,1.84,0,2.76,0,.28-.13,.38-.39,.38-1.79-.03-3.58,.05-5.37-.04-.55-.03-1.11-.01-1.66,.06-.88,.12-1.33,.72-1.64,1.45-.79,1.87-1.6,3.73-2.46,5.57-1.04,2.23-2.08,4.45-3.12,6.68-.5,1.07-1.02,2.14-1.53,3.21-.04,.09-.06,.22-.17,.23-.15,.01-.16-.14-.2-.24-1.45-3.18-2.89-6.35-4.34-9.53-1.3-2.87-2.61-5.74-3.91-8.6-.02-.04-.05-.08-.13-.19Z"/></svg>