<?xml version="1.0" encoding="UTF-8"?><svg id="Layer_1" xmlns="http://www.w3.org/2000/svg" viewBox="0 0 118 61"><defs><style>.cls-1{fill:#eee;}.cls-2{fill:#3f6ac3;}.cls-3{fill:#0a225d;}</style></defs><path class="cls-1" d="M49.45,3.63c.46,0,.87,.2,1.29,.35,10.74,3.92,21.47,7.85,32.21,11.78,10.62,3.89,21.25,7.77,31.87,11.66,.2,.07,.4,.14,.59,.21,1.16,.46,1.47,1.08,1.05,2.25-1.01,2.82-2.04,5.63-3.07,8.44-2.48,6.8-4.97,13.61-7.44,20.41-.62,1.71-1.14,1.97-2.82,1.35-21.39-7.82-42.78-15.63-64.16-23.45-.08-.03-.17-.07-.25-.1-1.62-.61-1.85-1.11-1.27-2.71,1.49-4.08,2.97-8.15,4.46-12.23,2.02-5.54,4.05-11.07,6.06-16.61,.26-.72,.6-1.31,1.48-1.34Z"/><path class="cls-1" d="M5.31,8.31c.34,1.57,.67,3.14,1.01,4.7,.6,2.81,1.21,5.61,1.65,8.45,.34,2.2-1.12,4.2-3.19,4.43-2.3,.25-4.19-1.27-4.29-3.55-.06-1.26,.29-2.49,.54-3.72,.75-3.63,1.52-7.26,2.3-10.88,.08-.39,.1-.74-.03-1.14-.63-1.82,.51-3.08,2.45-2.69,2.84,.57,5.68,1.16,8.52,1.75,4.63,.95,9.25,1.9,13.88,2.85,1.44,.3,1.9,1.12,1.41,2.48-.79,2.16-1.57,4.33-2.37,6.49-.53,1.43-1.37,1.75-2.73,1.02-6.07-3.3-12.14-6.61-18.21-9.91-.25-.14-.47-.38-.92-.28Z"/><path class="cls-1" d="M41.27,5.68c.03,.35-.11,.72-.24,1.08-2.6,7.11-5.2,14.22-7.81,21.32-.72,1.95-1.82,2.33-3.62,1.28-.98-.57-1.97-1.13-2.95-1.72-1.16-.7-1.47-1.55-1.02-2.81,2.46-6.74,4.93-13.49,7.4-20.23,.55-1.49,1.25-1.9,2.82-1.64,1.27,.2,2.54,.42,3.79,.7,1.07,.24,1.61,.95,1.61,2.02Zm-9.47,8.04c-.32-.03-.46,.11-.52,.33-.1,.35,.14,.49,.4,.59,1.25,.46,2.51,.91,3.77,1.38,.37,.14,.54,0,.67-.34,.15-.4,.02-.61-.38-.72-.83-.25-1.65-.51-2.47-.77-.51-.16-1.02-.33-1.46-.47Zm-.87,2.31c-.27-.05-.4,.1-.49,.31-.1,.23-.06,.42,.18,.52,1.32,.56,2.65,1.11,3.97,1.65,.33,.14,.51-.08,.61-.36,.08-.23,.17-.48-.15-.6-1.37-.51-2.74-1.02-4.12-1.53Zm1.75-4.62c-.37-.04-.49,.11-.56,.33-.1,.29,.02,.46,.29,.54,1.34,.42,2.68,.85,4.02,1.27,.35,.11,.5-.09,.59-.37,.07-.22,.24-.49-.12-.59-1.44-.41-2.88-.81-4.22-1.18Zm1.63,9.13c.03-.27-.09-.44-.3-.53-1.26-.54-2.52-1.07-3.79-1.59-.3-.12-.52-.02-.65,.28-.13,.31,.05,.43,.29,.54,1.24,.58,2.48,1.16,3.72,1.74,.51,.24,.62-.11,.72-.45Zm-.7-11.43c-.3-.05-.53-.01-.63,.33-.07,.25,.01,.43,.25,.49,1.41,.39,2.82,.78,4.23,1.13,.42,.11,.44-.3,.53-.57,.12-.35-.14-.4-.38-.45-1.34-.31-2.67-.62-4.01-.93Zm.66-2.36c-.19-.07-.35,.07-.44,.33-.08,.23-.03,.45,.21,.5,1.44,.34,2.89,.68,4.34,.98,.41,.09,.44-.32,.52-.59,.08-.28-.09-.37-.33-.41-1.4-.26-2.8-.53-4.31-.81Zm-5.12,13.91c-.28-.02-.36,.14-.41,.32-.09,.32,.09,.5,.35,.64,1.11,.58,2.21,1.16,3.33,1.72,.28,.14,.61,.51,.89-.03,.29-.54-.07-.75-.48-.94-1.11-.52-2.21-1.03-3.32-1.55-.13-.06-.27-.12-.36-.16Zm3.36,4.83c.04-.34-.21-.47-.45-.59-1.14-.59-2.28-1.17-3.43-1.75-.22-.11-.47-.36-.68,.02-.19,.33-.06,.58,.24,.75,1.19,.68,2.39,1.35,3.59,2.02,.49,.27,.63-.07,.74-.45Zm-.92,2.4c-.01-.26-.2-.36-.38-.47-1.14-.65-2.29-1.3-3.43-1.94-.2-.11-.44-.33-.62-.05-.17,.28-.11,.61,.19,.79,1.16,.68,2.32,1.36,3.49,2.01,.33,.18,.65,.08,.75-.34Zm3.96-23.4c-.36,.02-.78-.08-.84,.36-.08,.5,.39,.44,.69,.5,1.17,.24,2.34,.46,3.52,.67,.3,.05,.71,.22,.78-.3,.06-.39-.27-.5-.57-.56-1.2-.23-2.41-.45-3.57-.67Z"/><path class="cls-1" d="M34.54,35.22c-1.47,0-2.46-1.34-1.97-2.8,.7-2.07,1.48-4.11,2.23-6.16,2.78-7.62,5.55-15.24,8.33-22.86,.13-.36,.26-.74,.45-1.08,.52-.96,1.64-1.36,2.61-.95,.99,.41,1.57,1.47,1.23,2.49-.71,2.1-1.48,4.17-2.24,6.25-2.81,7.7-5.61,15.41-8.42,23.11-.52,1.42-1.15,1.99-2.22,1.99Z"/><g><path class="cls-3" d="M53.16,7.26l5.24,1.89-.82,8.58,4.85-7.12,5.24,1.89-4.66,12.9-3.26-1.18,3.56-9.84-6.07,8.93-2.96-1.07,1.05-10.75-3.56,9.84-3.27-1.18,4.66-12.9Z"/><path class="cls-3" d="M67.37,19.7c.76-2.11,1.94-3.53,3.54-4.28,1.6-.75,3.44-.75,5.54,.01s3.59,1.95,4.34,3.52c.75,1.57,.74,3.4,0,5.47-.55,1.51-1.25,2.65-2.1,3.43s-1.86,1.27-3.01,1.46c-1.15,.19-2.45,.03-3.88-.49s-2.58-1.19-3.36-2c-.79-.81-1.29-1.82-1.52-3.04-.23-1.22-.07-2.58,.47-4.09Zm3.98,1.46c-.47,1.3-.57,2.33-.29,3.07,.28,.74,.83,1.27,1.67,1.57s1.62,.27,2.29-.12c.67-.39,1.27-1.3,1.79-2.75,.44-1.21,.51-2.19,.23-2.93s-.85-1.26-1.69-1.56-1.55-.24-2.24,.15c-.69,.39-1.28,1.25-1.75,2.56Z"/><path class="cls-3" d="M80.62,31.77l4.66-12.9,6.64,2.4c1.23,.45,2.14,.89,2.71,1.34s.96,1.03,1.15,1.74c.19,.72,.14,1.49-.16,2.31-.26,.72-.63,1.28-1.13,1.69-.49,.41-1.06,.68-1.72,.81-.41,.08-.94,.08-1.58,0,.42,.33,.71,.61,.87,.85,.11,.16,.24,.46,.39,.91,.15,.45,.24,.78,.27,1l.58,4.44-4.5-1.63-.71-4.71c-.09-.61-.21-1.03-.36-1.25-.22-.3-.5-.52-.87-.65l-.35-.13-1.89,5.24-4-1.45Zm6.78-6.23l1.68,.61c.18,.07,.55,.13,1.12,.21,.28,.04,.55-.01,.79-.17,.25-.16,.42-.38,.52-.66,.15-.42,.13-.78-.05-1.1-.18-.32-.64-.61-1.37-.87l-1.75-.63-.95,2.62Z"/><path class="cls-3" d="M99.24,23.91l10.68,3.86-1,2.76-6.69-2.42-.74,2.05,6.21,2.24-.95,2.63-6.21-2.24-.92,2.54,6.88,2.49-1.06,2.92-10.88-3.93,4.66-12.9Z"/></g><g><path class="cls-2" d="M45.57,31.09c.94,1.37,2.14,2.26,3.26,2.68,1.37,.51,2.56,.29,2.93-.68,.84-2.23-7.13-3.27-5.52-7.56,1.24-3.3,4.75-2.95,7.77-1.82,1.19,.45,2.29,1.02,3.15,1.53l-1.33,3.2c-.5-.49-1.75-1.32-2.94-1.77-1.06-.4-2.07-.47-2.36,.31-.68,1.81,7.88,2.09,5.64,8.05-1.27,3.37-5.02,3.66-8.28,2.43-2.39-.9-4.51-2.6-5.2-4.52l2.88-1.85Z"/><path class="cls-2" d="M63.53,43.12l.39-3.56-3.47-1.16-1.59,2.62-4.14-1.31,8.66-12.02,4.72,1.35-.37,15.46-4.2-1.37Zm.9-10.81l-2.58,3.81,2.32,.87,.26-4.68Z"/><path class="cls-2" d="M83.48,35.07c-.27,1.31-.7,2.77-1.24,4.23-1.82,4.86-5.07,9.57-9.27,7.99-3.88-1.46-3.93-6.88-1.86-12.39,.47-1.26,1.25-2.85,1.85-3.9l3.95,1.99c-.64,.83-1.32,2.28-1.72,3.34-1.23,3.28-1.46,5.71-.07,6.23,1.56,.59,2.85-1.34,3.98-4.33,.55-1.47,.91-2.86,1.14-4.05l3.26,.9Z"/><path class="cls-2" d="M90,52.45c-1.32-.03-2.53-.26-3.56-.65-4.08-1.53-5.79-5.49-4.46-9.02,1.23-3.26,4.89-5.97,9.63-4.19,.82,.31,1.66,.81,2.48,1.54l-2.29,2.76c-.35-.37-.77-.63-1.2-.79-2.23-.84-3.76,.15-4.28,1.55-.77,2.04,.19,3.43,1.7,4,.67,.25,1.47,.35,2.25,.26l-.26,4.56Z"/><path class="cls-2" d="M91.6,53.42l3.87-13.36,8.72,2.14-.92,3.15-5.09-1.26-.5,1.87,3.92,1.15-.78,2.93-3.86-1.09-.45,2.01,4.97,1.32-1.39,4.46-8.48-3.33Z"/></g></svg>