<?xml version="1.0" encoding="UTF-8"?><svg id="Layer_1" xmlns="http://www.w3.org/2000/svg" viewBox="0 0 11 11"><defs><style>.cls-1{fill:#f2ede9;}</style></defs><path class="cls-1" d="M3.3,4.93s.08,.01,.12,.01c1.93,0,3.87,0,5.8,0,.22,0,.4,.08,.52,.27,.23,.37-.02,.83-.45,.85-.04,0-.08,0-.11,0-1.92,0-3.83,0-5.75,0-.04,0-.08,0-.12,.01,.04,.06,.1,.1,.15,.15,.51,.51,1.01,1.01,1.52,1.52,.16,.16,.23,.36,.16,.58-.07,.21-.22,.34-.43,.38-.2,.04-.36-.03-.51-.17-.43-.43-.86-.86-1.29-1.29-.56-.56-1.12-1.12-1.68-1.68-.06-.05-.05-.09,0-.14,.99-.99,1.98-1.98,2.97-2.97,.16-.16,.36-.22,.58-.15,.22,.07,.34,.23,.38,.46,.03,.18-.03,.34-.16,.46-.51,.51-1.02,1.02-1.53,1.53-.05,.05-.1,.1-.16,.16Z"/></svg>