<?xml version="1.0" encoding="UTF-8"?><svg id="Layer_1" xmlns="http://www.w3.org/2000/svg" viewBox="0 0 11 11"><defs><style>.cls-1{fill:#f2ede9;}</style></defs><path class="cls-1" d="M.64,9.94c0-.18,.08-.36,.22-.51,.49-.51,.98-1.02,1.47-1.53,.71-.74,1.42-1.49,2.14-2.23,.05-.05,.05-.09,0-.14-.51-.53-1.01-1.05-1.52-1.58-.7-.73-1.4-1.46-2.09-2.19-.29-.3-.28-.79,.03-1.09,.3-.29,.79-.3,1.08,0,.6,.61,1.19,1.23,1.78,1.85,.31,.33,.63,.66,.94,.98,.29,.3,.57,.6,.86,.9,.05,.05,.08,.06,.14,0,.59-.62,1.18-1.23,1.77-1.85,.32-.33,.63-.66,.95-.99,.28-.29,.55-.58,.83-.87,.22-.23,.56-.31,.85-.2,.29,.11,.5,.4,.51,.72,0,.21-.07,.4-.22,.55-.49,.51-.98,1.02-1.47,1.54-.71,.74-1.42,1.48-2.13,2.22-.05,.05-.05,.09,0,.14,.43,.45,.86,.9,1.29,1.34,.77,.8,1.54,1.6,2.3,2.41,.22,.23,.29,.51,.18,.81-.11,.31-.35,.49-.68,.53-.24,.02-.45-.06-.61-.23-.52-.53-1.02-1.07-1.54-1.6-.16-.16-.31-.33-.47-.49-.52-.54-1.03-1.08-1.55-1.62-.07-.07-.1-.06-.16,0-.84,.88-1.68,1.76-2.52,2.63-.33,.35-.66,.7-1,1.05-.24,.25-.57,.32-.88,.19-.28-.11-.48-.42-.48-.75Z"/></svg>