<?xml version="1.0" encoding="UTF-8"?><svg id="Layer_1" xmlns="http://www.w3.org/2000/svg" viewBox="0 0 29 29.5"><defs><style>.cls-1{fill:#0a225d;}</style></defs><path class="cls-1" d="M5.93,27.82c.15-.94,.51-1.7,.77-2.5,.72-2.26,1.43-4.52,2.21-6.76,.21-.6,.06-.88-.4-1.21-2.38-1.69-4.74-3.4-7.1-5.11-.21-.16-.59-.3-.53-.56,.09-.36,.5-.23,.78-.23,2.86,0,5.73-.01,8.59,.03,.73,.01,1.07-.25,1.29-.94,.83-2.68,1.7-5.35,2.57-8.02,.09-.27,.11-.59,.54-.83,.36,1.08,.71,2.12,1.05,3.17,.62,1.92,1.24,3.84,1.83,5.77,.19,.63,.55,.85,1.2,.85,2.84-.03,5.67-.03,8.51-.02,.31,0,.78-.15,.9,.18,.12,.34-.34,.5-.58,.68-2.31,1.69-4.62,3.38-6.97,5.03-.5,.35-.66,.63-.44,1.25,.97,2.81,1.87,5.64,2.79,8.47,.07,.22,.28,.52,.08,.68-.27,.22-.48-.13-.68-.27-2.31-1.69-4.63-3.37-6.91-5.1-.64-.49-1.08-.55-1.76-.03-2.18,1.68-4.42,3.29-6.64,4.91-.3,.22-.57,.51-1.08,.59Z"/></svg>